<svg xmlns="http://www.w3.org/2000/svg" viewBox="0 0 640 560" fill="none" role="img" aria-label="A tangle: the website, SEO, design, social assets, strategy, sales, and growth all scattered and cross-wired to each other, none of them a center.">
  <!-- the tangle: everything cross-wired to everything, no center -->
  <g stroke="#cbcbcb" stroke-width="1.5" stroke-dasharray="5 6" stroke-linecap="round">
    <path d="M176,100 L512,300"/>
    <path d="M132,300 L492,462"/>
    <path d="M500,92  L182,466"/>
    <path d="M182,466 L516,300"/>
    <path d="M138,300 L488,100"/>
    <path d="M172,112 L478,462"/>
    <path d="M176,100 L182,466"/>
    <path d="M500,92  L516,300"/>
    <path d="M320,288 L488,100"/>
    <path d="M320,288 L182,466"/>
  </g>

  <!-- the six, plus the website, jumbled and greyed — the website just
       one more scattered label, no longer a hub -->
  <g font-family="-apple-system, BlinkMacSystemFont, 'Segoe UI', system-ui, Helvetica, Arial, sans-serif" font-size="26" font-weight="600" fill="#a3a3a3">
    <text transform="rotate(-13 148 100)"  x="148" y="100" text-anchor="middle">SEO</text>
    <text transform="rotate(9 128 302)"    x="128" y="302" text-anchor="middle">Strategy</text>
    <text transform="rotate(-7 178 472)"   x="178" y="472" text-anchor="middle">Social assets</text>
    <text transform="rotate(11 504 92)"    x="504" y="92"  text-anchor="middle">Design</text>
    <text transform="rotate(-10 520 302)"  x="520" y="302" text-anchor="middle">Sales</text>
    <text transform="rotate(14 486 470)"   x="486" y="470" text-anchor="middle">Growth</text>
    <text transform="rotate(-5 320 290)"   x="320" y="290" text-anchor="middle" fill="#8a8a8a">The website</text>
  </g>
</svg>
