<svg xmlns="http://www.w3.org/2000/svg" viewBox="0 0 640 560" fill="none" role="img" aria-label="Digital, SEO, design, strategy, sales, social assets, and growth all cross-wired to each other in a tangled, chaotic mess of wiggly lines with no center.">
  <!-- chaotic wiggly connections: everything wired to everything, badly -->
  <g stroke="#c8c8c8" stroke-width="1.7" stroke-linecap="round" stroke-linejoin="round" fill="none">
    <path d="M180.0,130.0 L187.4,135.6 L194.7,141.5 L202.1,147.2 L209.8,152.3 L218.1,156.4 L227.1,159.6 L236.5,161.9 L246.2,163.7 L255.7,165.7 L264.8,168.6 L273.2,172.7 L280.5,178.4 L286.9,185.8 L292.6,194.4 L297.8,203.7 L303.1,212.9 L308.9,221.2 L315.6,228.0 L323.5,232.8 L332.7,235.6 L342.8,236.8 L353.5,236.8 L364.4,236.7 L374.9,237.1 L384.7,238.8 L393.4,242.2 L401.1,247.5 L407.7,254.4 L413.7,262.4 L419.5,270.8 L425.4,279.0 L431.8,286.3 L439.0,292.4 L446.9,297.2 L455.4,301.1 L464.2,304.3 L473.2,307.4 L481.9,310.9 L490.2,315.0 L498.0,320.0"/>
    <path d="M472.0,116.0 L465.5,123.7 L459.6,131.7 L454.7,140.4 L451.0,149.8 L448.2,159.8 L445.3,169.8 L441.7,179.3 L436.3,187.7 L429.0,194.7 L419.7,200.6 L409.4,205.8 L399.1,211.0 L390.3,217.1 L383.8,224.8 L380.2,234.3 L379.3,245.5 L380.0,257.8 L381.0,270.3 L380.8,282.0 L378.1,292.1 L372.2,300.1 L363.3,306.2 L352.3,310.9 L340.5,315.1 L329.4,319.8 L320.3,325.8 L314.0,333.6 L310.4,343.1 L308.9,353.9 L308.3,365.4 L307.3,376.6 L305.1,387.0 L300.9,396.1 L294.8,404.0 L287.5,411.1 L279.7,417.9 L272.2,425.0 L265.8,432.7 L260.5,441.1 L256.0,450.0"/>
    <path d="M158.0,300.0 L165.0,304.3 L171.8,309.1 L178.5,314.0 L185.4,318.7 L192.6,322.7 L200.3,325.7 L208.5,327.8 L217.1,329.1 L225.9,330.0 L234.5,331.2 L242.8,333.2 L250.4,336.5 L257.1,341.2 L263.2,347.5 L268.6,355.0 L273.7,363.0 L278.8,370.9 L284.5,377.9 L290.8,383.5 L298.1,387.3 L306.3,389.3 L315.3,389.9 L324.8,389.5 L334.3,389.0 L343.6,389.0 L352.3,390.2 L360.1,392.9 L367.2,397.3 L373.5,402.9 L379.3,409.5 L385.0,416.4 L390.9,422.9 L397.1,428.8 L403.9,433.6 L411.2,437.3 L419.0,440.3 L426.9,442.8 L434.9,445.4 L442.6,448.4 L450.0,452.0"/>
    <path d="M348.0,272.0 L344.3,267.9 L340.6,263.7 L336.9,259.6 L332.9,255.8 L328.5,252.4 L323.8,249.5 L318.7,247.0 L313.4,244.8 L307.9,242.8 L302.4,240.7 L297.2,238.4 L292.4,235.6 L288.1,232.1 L284.4,228.0 L281.3,223.1 L278.7,217.7 L276.3,212.0 L274.1,206.1 L271.8,200.3 L269.1,195.0 L265.8,190.3 L262.0,186.4 L257.4,183.2 L252.3,180.7 L246.7,178.9 L240.8,177.3 L234.8,175.9 L229.0,174.3 L223.5,172.3 L218.4,169.7 L213.9,166.6 L209.8,162.9 L206.2,158.7 L202.8,154.2 L199.5,149.6 L196.1,145.0 L192.5,140.7 L188.7,136.8 L184.5,133.2 L180.0,130.0"/>
  </g>
  <g stroke="#d2d2d2" stroke-width="1.5" stroke-dasharray="5 7" stroke-linecap="round" stroke-linejoin="round" fill="none">
    <path d="M180.0,130.0 L181.2,138.2 L181.9,146.4 L182.8,154.7 L184.4,162.8 L187.2,170.5 L191.3,178.0 L196.2,185.3 L201.2,192.6 L205.2,200.1 L207.5,208.0 L207.8,216.4 L206.1,225.2 L203.2,234.4 L200.1,243.5 L198.2,252.5 L198.4,260.9 L201.3,268.6 L206.7,275.8 L214.0,282.5 L221.7,289.1 L228.7,295.9 L233.6,303.2 L235.9,311.1 L235.4,319.7 L233.0,328.7 L229.6,338.0 L226.5,347.1 L225.0,355.9 L225.6,364.3 L228.5,372.0 L233.0,379.4 L238.4,386.6 L243.6,393.8 L247.9,401.2 L250.8,409.0 L252.3,417.1 L252.9,425.4 L253.4,433.7 L254.3,442.0 L256.0,450.0"/>
    <path d="M498.0,320.0 L491.4,322.3 L484.9,324.7 L478.7,327.6 L472.9,331.3 L467.6,335.9 L462.6,341.2 L457.9,346.9 L453.1,352.5 L447.8,357.2 L442.0,360.8 L435.3,362.9 L427.8,363.5 L419.8,363.1 L411.5,362.1 L403.3,361.3 L395.6,361.5 L388.7,363.3 L382.9,366.9 L378.0,372.4 L374.0,379.4 L370.4,387.3 L366.9,395.3 L363.0,402.5 L358.4,408.5 L352.9,412.6 L346.3,414.9 L338.9,415.7 L331.0,415.5 L322.9,415.0 L315.1,414.8 L307.7,415.5 L300.9,417.5 L294.9,420.8 L289.4,425.2 L284.3,430.2 L279.3,435.3 L274.0,440.0 L268.4,444.1 L262.4,447.4 L256.0,450.0"/>
    <path d="M472.0,116.0 L472.1,121.2 L472.0,126.4 L471.9,131.6 L471.9,136.7 L472.3,141.9 L473.1,147.0 L474.6,152.0 L476.5,156.9 L478.9,161.8 L481.5,166.6 L484.1,171.5 L486.3,176.4 L488.0,181.3 L488.9,186.4 L489.0,191.6 L488.2,196.9 L486.8,202.2 L484.8,207.7 L482.7,213.1 L480.7,218.5 L479.2,223.9 L478.3,229.2 L478.3,234.4 L479.3,239.5 L481.0,244.4 L483.4,249.3 L486.3,254.1 L489.3,258.9 L492.1,263.7 L494.5,268.6 L496.4,273.6 L497.5,278.6 L498.1,283.7 L498.1,288.9 L497.7,294.1 L497.3,299.4 L496.9,304.6 L496.9,309.8 L497.2,314.9 L498.0,320.0"/>
    <path d="M348.0,272.0 L349.8,276.9 L351.9,281.7 L354.5,286.2 L357.6,290.3 L361.3,294.2 L365.3,297.8 L369.6,301.4 L373.8,304.9 L377.6,308.7 L380.8,312.9 L383.2,317.4 L384.7,322.5 L385.4,328.1 L385.4,334.0 L385.0,340.2 L384.5,346.4 L384.4,352.5 L384.8,358.1 L386.2,363.3 L388.6,367.9 L392.1,371.8 L396.6,375.2 L401.8,378.3 L407.4,381.0 L413.0,383.8 L418.3,386.7 L423.0,390.0 L426.8,393.8 L429.8,398.1 L431.8,402.9 L433.2,408.0 L434.1,413.5 L434.8,419.0 L435.6,424.5 L436.7,429.8 L438.4,434.8 L440.7,439.4 L443.5,443.8 L446.6,448.0 L450.0,452.0"/>
    <path d="M158.0,300.0 L162.8,299.8 L167.7,299.8 L172.5,299.9 L177.4,299.9 L182.2,299.6 L187.0,298.9 L191.6,297.5 L196.2,295.6 L200.7,293.2 L205.1,290.5 L209.6,287.9 L214.1,285.4 L218.7,283.5 L223.3,282.3 L228.1,281.9 L233.1,282.4 L238.1,283.6 L243.2,285.4 L248.4,287.5 L253.5,289.5 L258.6,291.1 L263.6,292.1 L268.5,292.3 L273.2,291.6 L277.9,290.1 L282.4,287.8 L286.8,285.0 L291.2,282.0 L295.7,279.1 L300.1,276.5 L304.7,274.5 L309.3,273.1 L314.1,272.4 L318.9,272.2 L323.8,272.4 L328.7,272.7 L333.6,273.0 L338.5,273.1 L343.3,272.8 L348.0,272.0"/>
    <path d="M472.0,116.0 L470.8,124.4 L470.7,132.8 L471.7,141.3 L473.5,149.8 L475.2,158.4 L475.8,166.9 L474.6,175.2 L471.4,183.4 L466.4,191.6 L460.8,199.6 L455.7,207.7 L452.5,216.0 L452.2,224.4 L454.8,233.0 L460.0,241.8 L466.4,250.6 L472.5,259.4 L476.5,268.1 L477.4,276.6 L474.8,284.9 L469.0,293.0 L461.5,300.9 L453.7,308.8 L447.5,316.9 L444.0,325.1 L443.8,333.5 L446.6,342.1 L451.4,350.9 L456.8,359.6 L461.2,368.4 L463.7,377.0 L463.7,385.4 L461.6,393.7 L458.1,401.9 L454.3,410.1 L451.1,418.3 L449.3,426.6 L448.8,435.1 L449.3,443.5 L450.0,452.0"/>
  </g>

  <!-- the seven pieces, jumbled and greyed; the website just one more
       label caught in the tangle -->
  <g font-family="-apple-system, BlinkMacSystemFont, 'Segoe UI', system-ui, Helvetica, Arial, sans-serif" font-size="26" font-weight="600" fill="#a3a3a3">
    <text transform="rotate(-12 150 112)"  x="150" y="112" text-anchor="middle">SEO</text>
    <text transform="rotate(8 500 96)"      x="500" y="96"  text-anchor="middle">Design</text>
    <text transform="rotate(-7 108 300)"    x="108" y="300" text-anchor="middle">Strategy</text>
    <text transform="rotate(-10 522 322)"   x="522" y="322" text-anchor="middle">Sales</text>
    <text transform="rotate(9 214 470)"     x="214" y="470" text-anchor="middle">Social assets</text>
    <text transform="rotate(-6 470 462)"    x="470" y="462" text-anchor="middle">Growth</text>
    <text transform="rotate(-14 286 236)" x="286" y="236" text-anchor="middle">digital</text>
  </g>
</svg>
