<svg xmlns="http://www.w3.org/2000/svg" viewBox="0 0 640 560" fill="none" role="img" aria-label="A tangle: SEO, design, social assets, strategy, sales, and growth scattered and cross-wired to each other, the website tilted and faded in the middle, connected to nothing on purpose.">
  <!-- the tangle: everything cross-wired to everything, no center -->
  <g stroke="#cbcbcb" stroke-width="1.5" stroke-dasharray="5 6" stroke-linecap="round">
    <path d="M176,100 L512,300"/>
    <path d="M132,300 L492,462"/>
    <path d="M500,92  L182,466"/>
    <path d="M182,466 L516,300"/>
    <path d="M138,300 L488,100"/>
    <path d="M172,112 L478,462"/>
    <path d="M176,100 L182,466"/>
    <path d="M500,92  L516,300"/>
  </g>

  <!-- the website: tilted, faded, buried in the mess, wired to nothing -->
  <g transform="rotate(-8 315 300)">
    <rect x="242" y="246" width="150" height="112" rx="12" fill="#ffffff" fill-opacity="0.92" stroke="#c8c8c8" stroke-width="2.2" stroke-dasharray="7 6"/>
    <line x1="242" y1="276" x2="392" y2="276" stroke="#e5e5e5" stroke-width="2"/>
    <circle cx="262" cy="261" r="3.4" fill="none" stroke="#c8c8c8" stroke-width="1.3"/>
    <circle cx="275" cy="261" r="3.4" fill="none" stroke="#c8c8c8" stroke-width="1.3"/>
    <circle cx="288" cy="261" r="3.4" fill="none" stroke="#c8c8c8" stroke-width="1.3"/>
    <line x1="260" y1="300" x2="360" y2="300" stroke="#ededed" stroke-width="3" stroke-linecap="round"/>
    <line x1="260" y1="320" x2="320" y2="320" stroke="#ededed" stroke-width="3" stroke-linecap="round"/>
    <text x="317" y="392" text-anchor="middle" font-family="-apple-system, BlinkMacSystemFont, 'Segoe UI', system-ui, Helvetica, Arial, sans-serif" font-size="13" font-weight="600" letter-spacing="2" fill="#b0b0b0">THE WEBSITE</text>
  </g>

  <!-- the same six, jumbled and greyed, each drifting on its own angle -->
  <g font-family="-apple-system, BlinkMacSystemFont, 'Segoe UI', system-ui, Helvetica, Arial, sans-serif" font-size="26" font-weight="600" fill="#a3a3a3">
    <text transform="rotate(-13 148 100)"  x="148" y="100" text-anchor="middle">SEO</text>
    <text transform="rotate(9 128 302)"    x="128" y="302" text-anchor="middle">Strategy</text>
    <text transform="rotate(-7 178 472)"   x="178" y="472" text-anchor="middle">Social assets</text>
    <text transform="rotate(11 504 92)"    x="504" y="92"  text-anchor="middle">Design</text>
    <text transform="rotate(-10 520 302)"  x="520" y="302" text-anchor="middle">Sales</text>
    <text transform="rotate(14 486 470)"   x="486" y="470" text-anchor="middle">Growth</text>
  </g>
</svg>
