<svg xmlns="http://www.w3.org/2000/svg" viewBox="0 0 1000 150" preserveAspectRatio="xMidYMax slice" shape-rendering="crispEdges" role="img" aria-label="Pixel-art city skyline">
<defs><linearGradient id="sky" x1="0" y1="0" x2="0" y2="1">
<stop offset="0" stop-color="#8ec6ee"/><stop offset="1" stop-color="#cfe9fb"/>
</linearGradient></defs>
<rect width="1000" height="150" fill="url(#sky)"/>
<rect x="70" y="30" width="40" height="5" fill="#ffffff"/>
<rect x="75" y="25" width="30" height="5" fill="#ffffff"/>
<rect x="80" y="20" width="20" height="5" fill="#ffffff"/>
<rect x="65" y="30" width="5" height="5" fill="#e9f3fc"/>
<rect x="110" y="30" width="5" height="5" fill="#e9f3fc"/>
<rect x="70" y="35" width="5" height="5" fill="#e9f3fc"/>
<rect x="80" y="35" width="5" height="5" fill="#e9f3fc"/>
<rect x="90" y="35" width="5" height="5" fill="#e9f3fc"/>
<rect x="100" y="35" width="5" height="5" fill="#e9f3fc"/>
<rect x="200" y="20" width="30" height="5" fill="#ffffff"/>
<rect x="205" y="15" width="20" height="5" fill="#ffffff"/>
<rect x="210" y="10" width="10" height="5" fill="#ffffff"/>
<rect x="195" y="20" width="5" height="5" fill="#e9f3fc"/>
<rect x="230" y="20" width="5" height="5" fill="#e9f3fc"/>
<rect x="200" y="25" width="5" height="5" fill="#e9f3fc"/>
<rect x="210" y="25" width="5" height="5" fill="#e9f3fc"/>
<rect x="220" y="25" width="5" height="5" fill="#e9f3fc"/>
<rect x="350" y="35" width="45" height="5" fill="#ffffff"/>
<rect x="355" y="30" width="35" height="5" fill="#ffffff"/>
<rect x="360" y="25" width="25" height="5" fill="#ffffff"/>
<rect x="345" y="35" width="5" height="5" fill="#e9f3fc"/>
<rect x="395" y="35" width="5" height="5" fill="#e9f3fc"/>
<rect x="350" y="40" width="5" height="5" fill="#e9f3fc"/>
<rect x="360" y="40" width="5" height="5" fill="#e9f3fc"/>
<rect x="370" y="40" width="5" height="5" fill="#e9f3fc"/>
<rect x="380" y="40" width="5" height="5" fill="#e9f3fc"/>
<rect x="390" y="40" width="5" height="5" fill="#e9f3fc"/>
<rect x="590" y="25" width="35" height="5" fill="#ffffff"/>
<rect x="595" y="20" width="25" height="5" fill="#ffffff"/>
<rect x="600" y="15" width="15" height="5" fill="#ffffff"/>
<rect x="585" y="25" width="5" height="5" fill="#e9f3fc"/>
<rect x="625" y="25" width="5" height="5" fill="#e9f3fc"/>
<rect x="590" y="30" width="5" height="5" fill="#e9f3fc"/>
<rect x="600" y="30" width="5" height="5" fill="#e9f3fc"/>
<rect x="610" y="30" width="5" height="5" fill="#e9f3fc"/>
<rect x="620" y="30" width="5" height="5" fill="#e9f3fc"/>
<rect x="750" y="30" width="40" height="5" fill="#ffffff"/>
<rect x="755" y="25" width="30" height="5" fill="#ffffff"/>
<rect x="760" y="20" width="20" height="5" fill="#ffffff"/>
<rect x="745" y="30" width="5" height="5" fill="#e9f3fc"/>
<rect x="790" y="30" width="5" height="5" fill="#e9f3fc"/>
<rect x="750" y="35" width="5" height="5" fill="#e9f3fc"/>
<rect x="760" y="35" width="5" height="5" fill="#e9f3fc"/>
<rect x="770" y="35" width="5" height="5" fill="#e9f3fc"/>
<rect x="780" y="35" width="5" height="5" fill="#e9f3fc"/>
<rect x="910" y="20" width="30" height="5" fill="#ffffff"/>
<rect x="915" y="15" width="20" height="5" fill="#ffffff"/>
<rect x="920" y="10" width="10" height="5" fill="#ffffff"/>
<rect x="905" y="20" width="5" height="5" fill="#e9f3fc"/>
<rect x="940" y="20" width="5" height="5" fill="#e9f3fc"/>
<rect x="910" y="25" width="5" height="5" fill="#e9f3fc"/>
<rect x="920" y="25" width="5" height="5" fill="#e9f3fc"/>
<rect x="930" y="25" width="5" height="5" fill="#e9f3fc"/>
<rect x="0" y="100" width="25" height="45" fill="#b0cbe0"/>
<rect x="5" y="105" width="5" height="5" fill="#cfe2f0"/>
<rect x="15" y="115" width="5" height="5" fill="#cfe2f0"/>
<rect x="15" y="125" width="5" height="5" fill="#cfe2f0"/>
<rect x="25" y="115" width="35" height="30" fill="#b0cbe0"/>
<rect x="40" y="120" width="5" height="5" fill="#cfe2f0"/>
<rect x="30" y="130" width="5" height="5" fill="#cfe2f0"/>
<rect x="65" y="100" width="35" height="45" fill="#b0cbe0"/>
<rect x="70" y="135" width="5" height="5" fill="#cfe2f0"/>
<rect x="100" y="105" width="20" height="40" fill="#9fbfd8"/>
<rect x="125" y="110" width="30" height="35" fill="#b0cbe0"/>
<rect x="140" y="115" width="5" height="5" fill="#cfe2f0"/>
<rect x="130" y="125" width="5" height="5" fill="#cfe2f0"/>
<rect x="130" y="135" width="5" height="5" fill="#cfe2f0"/>
<rect x="155" y="120" width="20" height="25" fill="#b0cbe0"/>
<rect x="160" y="125" width="5" height="5" fill="#cfe2f0"/>
<rect x="180" y="110" width="40" height="35" fill="#b0cbe0"/>
<rect x="195" y="115" width="5" height="5" fill="#cfe2f0"/>
<rect x="185" y="125" width="5" height="5" fill="#cfe2f0"/>
<rect x="195" y="125" width="5" height="5" fill="#cfe2f0"/>
<rect x="205" y="125" width="5" height="5" fill="#cfe2f0"/>
<rect x="195" y="135" width="5" height="5" fill="#cfe2f0"/>
<rect x="225" y="110" width="40" height="35" fill="#b0cbe0"/>
<rect x="265" y="120" width="30" height="25" fill="#9fbfd8"/>
<rect x="300" y="100" width="25" height="45" fill="#b0cbe0"/>
<rect x="305" y="115" width="5" height="5" fill="#cfe2f0"/>
<rect x="330" y="105" width="40" height="40" fill="#b0cbe0"/>
<rect x="335" y="110" width="5" height="5" fill="#cfe2f0"/>
<rect x="345" y="120" width="5" height="5" fill="#cfe2f0"/>
<rect x="355" y="120" width="5" height="5" fill="#cfe2f0"/>
<rect x="345" y="130" width="5" height="5" fill="#cfe2f0"/>
<rect x="355" y="130" width="5" height="5" fill="#cfe2f0"/>
<rect x="370" y="120" width="20" height="25" fill="#9fbfd8"/>
<rect x="375" y="135" width="5" height="5" fill="#cfe2f0"/>
<rect x="390" y="100" width="20" height="45" fill="#b0cbe0"/>
<rect x="395" y="115" width="5" height="5" fill="#cfe2f0"/>
<rect x="395" y="125" width="5" height="5" fill="#cfe2f0"/>
<rect x="415" y="90" width="25" height="55" fill="#9fbfd8"/>
<rect x="420" y="95" width="5" height="5" fill="#cfe2f0"/>
<rect x="420" y="125" width="5" height="5" fill="#cfe2f0"/>
<rect x="445" y="95" width="20" height="50" fill="#b0cbe0"/>
<rect x="450" y="110" width="5" height="5" fill="#cfe2f0"/>
<rect x="470" y="110" width="25" height="35" fill="#b0cbe0"/>
<rect x="475" y="115" width="5" height="5" fill="#cfe2f0"/>
<rect x="485" y="135" width="5" height="5" fill="#cfe2f0"/>
<rect x="500" y="95" width="40" height="50" fill="#9fbfd8"/>
<rect x="515" y="100" width="5" height="5" fill="#cfe2f0"/>
<rect x="515" y="110" width="5" height="5" fill="#cfe2f0"/>
<rect x="540" y="105" width="30" height="40" fill="#b0cbe0"/>
<rect x="545" y="110" width="5" height="5" fill="#cfe2f0"/>
<rect x="575" y="110" width="20" height="35" fill="#b0cbe0"/>
<rect x="580" y="135" width="5" height="5" fill="#cfe2f0"/>
<rect x="600" y="110" width="25" height="35" fill="#9fbfd8"/>
<rect x="615" y="125" width="5" height="5" fill="#cfe2f0"/>
<rect x="625" y="90" width="30" height="55" fill="#9fbfd8"/>
<rect x="630" y="115" width="5" height="5" fill="#cfe2f0"/>
<rect x="630" y="135" width="5" height="5" fill="#cfe2f0"/>
<rect x="655" y="120" width="20" height="25" fill="#b0cbe0"/>
<rect x="660" y="135" width="5" height="5" fill="#cfe2f0"/>
<rect x="675" y="90" width="40" height="55" fill="#b0cbe0"/>
<rect x="680" y="95" width="5" height="5" fill="#cfe2f0"/>
<rect x="690" y="105" width="5" height="5" fill="#cfe2f0"/>
<rect x="680" y="115" width="5" height="5" fill="#cfe2f0"/>
<rect x="690" y="115" width="5" height="5" fill="#cfe2f0"/>
<rect x="700" y="135" width="5" height="5" fill="#cfe2f0"/>
<rect x="715" y="105" width="25" height="40" fill="#9fbfd8"/>
<rect x="720" y="110" width="5" height="5" fill="#cfe2f0"/>
<rect x="730" y="110" width="5" height="5" fill="#cfe2f0"/>
<rect x="730" y="120" width="5" height="5" fill="#cfe2f0"/>
<rect x="745" y="95" width="25" height="50" fill="#b0cbe0"/>
<rect x="750" y="120" width="5" height="5" fill="#cfe2f0"/>
<rect x="760" y="130" width="5" height="5" fill="#cfe2f0"/>
<rect x="770" y="120" width="25" height="25" fill="#9fbfd8"/>
<rect x="785" y="125" width="5" height="5" fill="#cfe2f0"/>
<rect x="785" y="135" width="5" height="5" fill="#cfe2f0"/>
<rect x="800" y="105" width="30" height="40" fill="#9fbfd8"/>
<rect x="805" y="110" width="5" height="5" fill="#cfe2f0"/>
<rect x="815" y="110" width="5" height="5" fill="#cfe2f0"/>
<rect x="815" y="130" width="5" height="5" fill="#cfe2f0"/>
<rect x="835" y="120" width="25" height="25" fill="#b0cbe0"/>
<rect x="865" y="95" width="20" height="50" fill="#b0cbe0"/>
<rect x="870" y="100" width="5" height="5" fill="#cfe2f0"/>
<rect x="870" y="130" width="5" height="5" fill="#cfe2f0"/>
<rect x="885" y="120" width="25" height="25" fill="#9fbfd8"/>
<rect x="890" y="125" width="5" height="5" fill="#cfe2f0"/>
<rect x="910" y="120" width="35" height="25" fill="#b0cbe0"/>
<rect x="945" y="100" width="25" height="45" fill="#b0cbe0"/>
<rect x="950" y="125" width="5" height="5" fill="#cfe2f0"/>
<rect x="950" y="135" width="5" height="5" fill="#cfe2f0"/>
<rect x="960" y="135" width="5" height="5" fill="#cfe2f0"/>
<rect x="970" y="95" width="25" height="50" fill="#9fbfd8"/>
<rect x="975" y="100" width="5" height="5" fill="#cfe2f0"/>
<rect x="985" y="100" width="5" height="5" fill="#cfe2f0"/>
<rect x="985" y="120" width="5" height="5" fill="#cfe2f0"/>
<rect x="975" y="130" width="5" height="5" fill="#cfe2f0"/>
<rect x="0" y="55" width="30" height="90" fill="#243443"/>
<rect x="10" y="45" width="5" height="10" fill="#243443"/>
<rect x="10" y="40" width="5" height="5" fill="#e8edf2"/>
<rect x="5" y="60" width="5" height="5" fill="#f4d27a"/>
<rect x="15" y="60" width="5" height="5" fill="#ffe39e"/>
<rect x="5" y="70" width="5" height="5" fill="#ffe39e"/>
<rect x="15" y="70" width="5" height="5" fill="#1b2733"/>
<rect x="5" y="80" width="5" height="5" fill="#1b2733"/>
<rect x="15" y="80" width="5" height="5" fill="#1b2733"/>
<rect x="5" y="90" width="5" height="5" fill="#1b2733"/>
<rect x="15" y="90" width="5" height="5" fill="#f6dd8c"/>
<rect x="5" y="100" width="5" height="5" fill="#1b2733"/>
<rect x="15" y="100" width="5" height="5" fill="#1b2733"/>
<rect x="5" y="110" width="5" height="5" fill="#ffe39e"/>
<rect x="15" y="110" width="5" height="5" fill="#1b2733"/>
<rect x="5" y="120" width="5" height="5" fill="#f6dd8c"/>
<rect x="15" y="120" width="5" height="5" fill="#1b2733"/>
<rect x="5" y="130" width="5" height="5" fill="#1b2733"/>
<rect x="15" y="130" width="5" height="5" fill="#ffe39e"/>
<rect x="35" y="105" width="45" height="40" fill="#2c3f50"/>
<rect x="40" y="110" width="5" height="5" fill="#1b2733"/>
<rect x="50" y="110" width="5" height="5" fill="#1b2733"/>
<rect x="60" y="110" width="5" height="5" fill="#1b2733"/>
<rect x="70" y="110" width="5" height="5" fill="#f4d27a"/>
<rect x="40" y="120" width="5" height="5" fill="#1b2733"/>
<rect x="50" y="120" width="5" height="5" fill="#ffe39e"/>
<rect x="60" y="120" width="5" height="5" fill="#1b2733"/>
<rect x="70" y="120" width="5" height="5" fill="#1b2733"/>
<rect x="40" y="130" width="5" height="5" fill="#1b2733"/>
<rect x="50" y="130" width="5" height="5" fill="#ffe39e"/>
<rect x="60" y="130" width="5" height="5" fill="#1b2733"/>
<rect x="70" y="130" width="5" height="5" fill="#f4d27a"/>
<rect x="80" y="65" width="30" height="80" fill="#243443"/>
<rect x="85" y="70" width="5" height="5" fill="#1b2733"/>
<rect x="95" y="70" width="5" height="5" fill="#f4d27a"/>
<rect x="85" y="80" width="5" height="5" fill="#ffe39e"/>
<rect x="95" y="80" width="5" height="5" fill="#f6dd8c"/>
<rect x="85" y="90" width="5" height="5" fill="#1b2733"/>
<rect x="95" y="90" width="5" height="5" fill="#1b2733"/>
<rect x="85" y="100" width="5" height="5" fill="#ffe39e"/>
<rect x="95" y="100" width="5" height="5" fill="#f6dd8c"/>
<rect x="85" y="110" width="5" height="5" fill="#ffe39e"/>
<rect x="95" y="110" width="5" height="5" fill="#f4d27a"/>
<rect x="85" y="120" width="5" height="5" fill="#1b2733"/>
<rect x="95" y="120" width="5" height="5" fill="#1b2733"/>
<rect x="85" y="130" width="5" height="5" fill="#1b2733"/>
<rect x="95" y="130" width="5" height="5" fill="#f4d27a"/>
<rect x="115" y="75" width="45" height="70" fill="#34495c"/>
<rect x="120" y="80" width="5" height="5" fill="#1b2733"/>
<rect x="130" y="80" width="5" height="5" fill="#ffe39e"/>
<rect x="140" y="80" width="5" height="5" fill="#f4d27a"/>
<rect x="150" y="80" width="5" height="5" fill="#f4d27a"/>
<rect x="120" y="90" width="5" height="5" fill="#1b2733"/>
<rect x="130" y="90" width="5" height="5" fill="#f6dd8c"/>
<rect x="140" y="90" width="5" height="5" fill="#f4d27a"/>
<rect x="150" y="90" width="5" height="5" fill="#ffe39e"/>
<rect x="120" y="100" width="5" height="5" fill="#1b2733"/>
<rect x="130" y="100" width="5" height="5" fill="#ffe39e"/>
<rect x="140" y="100" width="5" height="5" fill="#1b2733"/>
<rect x="150" y="100" width="5" height="5" fill="#1b2733"/>
<rect x="120" y="110" width="5" height="5" fill="#ffe39e"/>
<rect x="130" y="110" width="5" height="5" fill="#f4d27a"/>
<rect x="140" y="110" width="5" height="5" fill="#1b2733"/>
<rect x="150" y="110" width="5" height="5" fill="#ffe39e"/>
<rect x="120" y="120" width="5" height="5" fill="#f4d27a"/>
<rect x="130" y="120" width="5" height="5" fill="#1b2733"/>
<rect x="140" y="120" width="5" height="5" fill="#1b2733"/>
<rect x="150" y="120" width="5" height="5" fill="#1b2733"/>
<rect x="120" y="130" width="5" height="5" fill="#f4d27a"/>
<rect x="130" y="130" width="5" height="5" fill="#1b2733"/>
<rect x="140" y="130" width="5" height="5" fill="#1b2733"/>
<rect x="150" y="130" width="5" height="5" fill="#1b2733"/>
<rect x="165" y="95" width="25" height="50" fill="#34495c"/>
<rect x="170" y="100" width="5" height="5" fill="#1b2733"/>
<rect x="180" y="100" width="5" height="5" fill="#1b2733"/>
<rect x="170" y="110" width="5" height="5" fill="#1b2733"/>
<rect x="180" y="110" width="5" height="5" fill="#ffe39e"/>
<rect x="170" y="120" width="5" height="5" fill="#ffe39e"/>
<rect x="180" y="120" width="5" height="5" fill="#1b2733"/>
<rect x="170" y="130" width="5" height="5" fill="#ffe39e"/>
<rect x="180" y="130" width="5" height="5" fill="#f4d27a"/>
<rect x="190" y="90" width="25" height="55" fill="#243443"/>
<rect x="195" y="95" width="5" height="5" fill="#1b2733"/>
<rect x="205" y="95" width="5" height="5" fill="#1b2733"/>
<rect x="195" y="105" width="5" height="5" fill="#ffe39e"/>
<rect x="205" y="105" width="5" height="5" fill="#f4d27a"/>
<rect x="195" y="115" width="5" height="5" fill="#1b2733"/>
<rect x="205" y="115" width="5" height="5" fill="#f6dd8c"/>
<rect x="195" y="125" width="5" height="5" fill="#f4d27a"/>
<rect x="205" y="125" width="5" height="5" fill="#1b2733"/>
<rect x="195" y="135" width="5" height="5" fill="#f4d27a"/>
<rect x="205" y="135" width="5" height="5" fill="#1b2733"/>
<rect x="215" y="60" width="25" height="85" fill="#2c3f50"/>
<rect x="225" y="50" width="5" height="10" fill="#2c3f50"/>
<rect x="225" y="45" width="5" height="5" fill="#e8edf2"/>
<rect x="220" y="65" width="5" height="5" fill="#1b2733"/>
<rect x="230" y="65" width="5" height="5" fill="#ffe39e"/>
<rect x="220" y="75" width="5" height="5" fill="#ffe39e"/>
<rect x="230" y="75" width="5" height="5" fill="#1b2733"/>
<rect x="220" y="85" width="5" height="5" fill="#f6dd8c"/>
<rect x="230" y="85" width="5" height="5" fill="#1b2733"/>
<rect x="220" y="95" width="5" height="5" fill="#1b2733"/>
<rect x="230" y="95" width="5" height="5" fill="#1b2733"/>
<rect x="220" y="105" width="5" height="5" fill="#f6dd8c"/>
<rect x="230" y="105" width="5" height="5" fill="#1b2733"/>
<rect x="220" y="115" width="5" height="5" fill="#1b2733"/>
<rect x="230" y="115" width="5" height="5" fill="#1b2733"/>
<rect x="220" y="125" width="5" height="5" fill="#ffe39e"/>
<rect x="230" y="125" width="5" height="5" fill="#1b2733"/>
<rect x="220" y="135" width="5" height="5" fill="#1b2733"/>
<rect x="230" y="135" width="5" height="5" fill="#1b2733"/>
<rect x="245" y="55" width="30" height="90" fill="#34495c"/>
<rect x="260" y="45" width="5" height="10" fill="#34495c"/>
<rect x="260" y="40" width="5" height="5" fill="#e8edf2"/>
<rect x="250" y="60" width="5" height="5" fill="#1b2733"/>
<rect x="260" y="60" width="5" height="5" fill="#f4d27a"/>
<rect x="250" y="70" width="5" height="5" fill="#1b2733"/>
<rect x="260" y="70" width="5" height="5" fill="#1b2733"/>
<rect x="250" y="80" width="5" height="5" fill="#f4d27a"/>
<rect x="260" y="80" width="5" height="5" fill="#ffe39e"/>
<rect x="250" y="90" width="5" height="5" fill="#f4d27a"/>
<rect x="260" y="90" width="5" height="5" fill="#1b2733"/>
<rect x="250" y="100" width="5" height="5" fill="#f4d27a"/>
<rect x="260" y="100" width="5" height="5" fill="#f4d27a"/>
<rect x="250" y="110" width="5" height="5" fill="#ffe39e"/>
<rect x="260" y="110" width="5" height="5" fill="#f6dd8c"/>
<rect x="250" y="120" width="5" height="5" fill="#f4d27a"/>
<rect x="260" y="120" width="5" height="5" fill="#ffe39e"/>
<rect x="250" y="130" width="5" height="5" fill="#f6dd8c"/>
<rect x="260" y="130" width="5" height="5" fill="#1b2733"/>
<rect x="280" y="60" width="35" height="85" fill="#2c3f50"/>
<rect x="295" y="50" width="5" height="10" fill="#2c3f50"/>
<rect x="295" y="45" width="5" height="5" fill="#e8edf2"/>
<rect x="285" y="65" width="5" height="5" fill="#1b2733"/>
<rect x="295" y="65" width="5" height="5" fill="#f6dd8c"/>
<rect x="305" y="65" width="5" height="5" fill="#1b2733"/>
<rect x="285" y="75" width="5" height="5" fill="#f4d27a"/>
<rect x="295" y="75" width="5" height="5" fill="#f4d27a"/>
<rect x="305" y="75" width="5" height="5" fill="#1b2733"/>
<rect x="285" y="85" width="5" height="5" fill="#f6dd8c"/>
<rect x="295" y="85" width="5" height="5" fill="#1b2733"/>
<rect x="305" y="85" width="5" height="5" fill="#1b2733"/>
<rect x="285" y="95" width="5" height="5" fill="#f4d27a"/>
<rect x="295" y="95" width="5" height="5" fill="#1b2733"/>
<rect x="305" y="95" width="5" height="5" fill="#f4d27a"/>
<rect x="285" y="105" width="5" height="5" fill="#1b2733"/>
<rect x="295" y="105" width="5" height="5" fill="#1b2733"/>
<rect x="305" y="105" width="5" height="5" fill="#ffe39e"/>
<rect x="285" y="115" width="5" height="5" fill="#ffe39e"/>
<rect x="295" y="115" width="5" height="5" fill="#f6dd8c"/>
<rect x="305" y="115" width="5" height="5" fill="#ffe39e"/>
<rect x="285" y="125" width="5" height="5" fill="#ffe39e"/>
<rect x="295" y="125" width="5" height="5" fill="#ffe39e"/>
<rect x="305" y="125" width="5" height="5" fill="#f4d27a"/>
<rect x="285" y="135" width="5" height="5" fill="#ffe39e"/>
<rect x="295" y="135" width="5" height="5" fill="#f4d27a"/>
<rect x="305" y="135" width="5" height="5" fill="#f6dd8c"/>
<rect x="320" y="85" width="45" height="60" fill="#2c3f50"/>
<rect x="325" y="90" width="5" height="5" fill="#1b2733"/>
<rect x="335" y="90" width="5" height="5" fill="#1b2733"/>
<rect x="345" y="90" width="5" height="5" fill="#f4d27a"/>
<rect x="355" y="90" width="5" height="5" fill="#1b2733"/>
<rect x="325" y="100" width="5" height="5" fill="#1b2733"/>
<rect x="335" y="100" width="5" height="5" fill="#1b2733"/>
<rect x="345" y="100" width="5" height="5" fill="#ffe39e"/>
<rect x="355" y="100" width="5" height="5" fill="#1b2733"/>
<rect x="325" y="110" width="5" height="5" fill="#f4d27a"/>
<rect x="335" y="110" width="5" height="5" fill="#f4d27a"/>
<rect x="345" y="110" width="5" height="5" fill="#1b2733"/>
<rect x="355" y="110" width="5" height="5" fill="#f4d27a"/>
<rect x="325" y="120" width="5" height="5" fill="#1b2733"/>
<rect x="335" y="120" width="5" height="5" fill="#f6dd8c"/>
<rect x="345" y="120" width="5" height="5" fill="#1b2733"/>
<rect x="355" y="120" width="5" height="5" fill="#1b2733"/>
<rect x="325" y="130" width="5" height="5" fill="#f6dd8c"/>
<rect x="335" y="130" width="5" height="5" fill="#1b2733"/>
<rect x="345" y="130" width="5" height="5" fill="#1b2733"/>
<rect x="355" y="130" width="5" height="5" fill="#f4d27a"/>
<rect x="370" y="85" width="35" height="60" fill="#2c3f50"/>
<rect x="375" y="90" width="5" height="5" fill="#f4d27a"/>
<rect x="385" y="90" width="5" height="5" fill="#f4d27a"/>
<rect x="395" y="90" width="5" height="5" fill="#f4d27a"/>
<rect x="375" y="100" width="5" height="5" fill="#f6dd8c"/>
<rect x="385" y="100" width="5" height="5" fill="#1b2733"/>
<rect x="395" y="100" width="5" height="5" fill="#f4d27a"/>
<rect x="375" y="110" width="5" height="5" fill="#1b2733"/>
<rect x="385" y="110" width="5" height="5" fill="#1b2733"/>
<rect x="395" y="110" width="5" height="5" fill="#ffe39e"/>
<rect x="375" y="120" width="5" height="5" fill="#1b2733"/>
<rect x="385" y="120" width="5" height="5" fill="#1b2733"/>
<rect x="395" y="120" width="5" height="5" fill="#1b2733"/>
<rect x="375" y="130" width="5" height="5" fill="#1b2733"/>
<rect x="385" y="130" width="5" height="5" fill="#ffe39e"/>
<rect x="395" y="130" width="5" height="5" fill="#f4d27a"/>
<rect x="405" y="80" width="50" height="65" fill="#243443"/>
<rect x="410" y="85" width="5" height="5" fill="#1b2733"/>
<rect x="420" y="85" width="5" height="5" fill="#f6dd8c"/>
<rect x="430" y="85" width="5" height="5" fill="#f4d27a"/>
<rect x="440" y="85" width="5" height="5" fill="#f4d27a"/>
<rect x="410" y="95" width="5" height="5" fill="#f6dd8c"/>
<rect x="420" y="95" width="5" height="5" fill="#ffe39e"/>
<rect x="430" y="95" width="5" height="5" fill="#1b2733"/>
<rect x="440" y="95" width="5" height="5" fill="#ffe39e"/>
<rect x="410" y="105" width="5" height="5" fill="#1b2733"/>
<rect x="420" y="105" width="5" height="5" fill="#ffe39e"/>
<rect x="430" y="105" width="5" height="5" fill="#f6dd8c"/>
<rect x="440" y="105" width="5" height="5" fill="#f6dd8c"/>
<rect x="410" y="115" width="5" height="5" fill="#f4d27a"/>
<rect x="420" y="115" width="5" height="5" fill="#1b2733"/>
<rect x="430" y="115" width="5" height="5" fill="#ffe39e"/>
<rect x="440" y="115" width="5" height="5" fill="#1b2733"/>
<rect x="410" y="125" width="5" height="5" fill="#f6dd8c"/>
<rect x="420" y="125" width="5" height="5" fill="#1b2733"/>
<rect x="430" y="125" width="5" height="5" fill="#f6dd8c"/>
<rect x="440" y="125" width="5" height="5" fill="#1b2733"/>
<rect x="410" y="135" width="5" height="5" fill="#ffe39e"/>
<rect x="420" y="135" width="5" height="5" fill="#f6dd8c"/>
<rect x="430" y="135" width="5" height="5" fill="#f4d27a"/>
<rect x="440" y="135" width="5" height="5" fill="#1b2733"/>
<rect x="455" y="55" width="40" height="90" fill="#b5623a"/>
<rect x="475" y="45" width="5" height="10" fill="#b5623a"/>
<rect x="475" y="40" width="5" height="5" fill="#e8edf2"/>
<rect x="460" y="60" width="5" height="5" fill="#ffe39e"/>
<rect x="470" y="60" width="5" height="5" fill="#1b2733"/>
<rect x="480" y="60" width="5" height="5" fill="#1b2733"/>
<rect x="460" y="70" width="5" height="5" fill="#f6dd8c"/>
<rect x="470" y="70" width="5" height="5" fill="#f6dd8c"/>
<rect x="480" y="70" width="5" height="5" fill="#1b2733"/>
<rect x="460" y="80" width="5" height="5" fill="#1b2733"/>
<rect x="470" y="80" width="5" height="5" fill="#1b2733"/>
<rect x="480" y="80" width="5" height="5" fill="#1b2733"/>
<rect x="460" y="90" width="5" height="5" fill="#1b2733"/>
<rect x="470" y="90" width="5" height="5" fill="#1b2733"/>
<rect x="480" y="90" width="5" height="5" fill="#f6dd8c"/>
<rect x="460" y="100" width="5" height="5" fill="#1b2733"/>
<rect x="470" y="100" width="5" height="5" fill="#f6dd8c"/>
<rect x="480" y="100" width="5" height="5" fill="#f6dd8c"/>
<rect x="460" y="110" width="5" height="5" fill="#1b2733"/>
<rect x="470" y="110" width="5" height="5" fill="#1b2733"/>
<rect x="480" y="110" width="5" height="5" fill="#f4d27a"/>
<rect x="460" y="120" width="5" height="5" fill="#1b2733"/>
<rect x="470" y="120" width="5" height="5" fill="#f4d27a"/>
<rect x="480" y="120" width="5" height="5" fill="#ffe39e"/>
<rect x="460" y="130" width="5" height="5" fill="#f6dd8c"/>
<rect x="470" y="130" width="5" height="5" fill="#f4d27a"/>
<rect x="480" y="130" width="5" height="5" fill="#f6dd8c"/>
<rect x="500" y="95" width="45" height="50" fill="#2c3f50"/>
<rect x="505" y="100" width="5" height="5" fill="#f4d27a"/>
<rect x="515" y="100" width="5" height="5" fill="#1b2733"/>
<rect x="525" y="100" width="5" height="5" fill="#1b2733"/>
<rect x="535" y="100" width="5" height="5" fill="#f6dd8c"/>
<rect x="505" y="110" width="5" height="5" fill="#f6dd8c"/>
<rect x="515" y="110" width="5" height="5" fill="#1b2733"/>
<rect x="525" y="110" width="5" height="5" fill="#ffe39e"/>
<rect x="535" y="110" width="5" height="5" fill="#1b2733"/>
<rect x="505" y="120" width="5" height="5" fill="#1b2733"/>
<rect x="515" y="120" width="5" height="5" fill="#1b2733"/>
<rect x="525" y="120" width="5" height="5" fill="#f4d27a"/>
<rect x="535" y="120" width="5" height="5" fill="#1b2733"/>
<rect x="505" y="130" width="5" height="5" fill="#1b2733"/>
<rect x="515" y="130" width="5" height="5" fill="#f4d27a"/>
<rect x="525" y="130" width="5" height="5" fill="#f4d27a"/>
<rect x="535" y="130" width="5" height="5" fill="#ffe39e"/>
<rect x="550" y="60" width="30" height="85" fill="#2c3f50"/>
<rect x="565" y="50" width="5" height="10" fill="#2c3f50"/>
<rect x="565" y="45" width="5" height="5" fill="#e8edf2"/>
<rect x="555" y="65" width="5" height="5" fill="#ffe39e"/>
<rect x="565" y="65" width="5" height="5" fill="#f6dd8c"/>
<rect x="555" y="75" width="5" height="5" fill="#1b2733"/>
<rect x="565" y="75" width="5" height="5" fill="#1b2733"/>
<rect x="555" y="85" width="5" height="5" fill="#1b2733"/>
<rect x="565" y="85" width="5" height="5" fill="#f6dd8c"/>
<rect x="555" y="95" width="5" height="5" fill="#ffe39e"/>
<rect x="565" y="95" width="5" height="5" fill="#1b2733"/>
<rect x="555" y="105" width="5" height="5" fill="#1b2733"/>
<rect x="565" y="105" width="5" height="5" fill="#ffe39e"/>
<rect x="555" y="115" width="5" height="5" fill="#f4d27a"/>
<rect x="565" y="115" width="5" height="5" fill="#ffe39e"/>
<rect x="555" y="125" width="5" height="5" fill="#ffe39e"/>
<rect x="565" y="125" width="5" height="5" fill="#1b2733"/>
<rect x="555" y="135" width="5" height="5" fill="#ffe39e"/>
<rect x="565" y="135" width="5" height="5" fill="#f6dd8c"/>
<rect x="580" y="70" width="25" height="75" fill="#243443"/>
<rect x="585" y="75" width="5" height="5" fill="#ffe39e"/>
<rect x="595" y="75" width="5" height="5" fill="#1b2733"/>
<rect x="585" y="85" width="5" height="5" fill="#f4d27a"/>
<rect x="595" y="85" width="5" height="5" fill="#f4d27a"/>
<rect x="585" y="95" width="5" height="5" fill="#ffe39e"/>
<rect x="595" y="95" width="5" height="5" fill="#f6dd8c"/>
<rect x="585" y="105" width="5" height="5" fill="#ffe39e"/>
<rect x="595" y="105" width="5" height="5" fill="#1b2733"/>
<rect x="585" y="115" width="5" height="5" fill="#f4d27a"/>
<rect x="595" y="115" width="5" height="5" fill="#1b2733"/>
<rect x="585" y="125" width="5" height="5" fill="#ffe39e"/>
<rect x="595" y="125" width="5" height="5" fill="#f4d27a"/>
<rect x="585" y="135" width="5" height="5" fill="#f6dd8c"/>
<rect x="595" y="135" width="5" height="5" fill="#1b2733"/>
<rect x="610" y="95" width="25" height="50" fill="#2c3f50"/>
<rect x="615" y="100" width="5" height="5" fill="#f6dd8c"/>
<rect x="625" y="100" width="5" height="5" fill="#1b2733"/>
<rect x="615" y="110" width="5" height="5" fill="#f4d27a"/>
<rect x="625" y="110" width="5" height="5" fill="#1b2733"/>
<rect x="615" y="120" width="5" height="5" fill="#1b2733"/>
<rect x="625" y="120" width="5" height="5" fill="#1b2733"/>
<rect x="615" y="130" width="5" height="5" fill="#1b2733"/>
<rect x="625" y="130" width="5" height="5" fill="#1b2733"/>
<rect x="635" y="85" width="25" height="60" fill="#243443"/>
<rect x="640" y="90" width="5" height="5" fill="#1b2733"/>
<rect x="650" y="90" width="5" height="5" fill="#1b2733"/>
<rect x="640" y="100" width="5" height="5" fill="#1b2733"/>
<rect x="650" y="100" width="5" height="5" fill="#f4d27a"/>
<rect x="640" y="110" width="5" height="5" fill="#1b2733"/>
<rect x="650" y="110" width="5" height="5" fill="#1b2733"/>
<rect x="640" y="120" width="5" height="5" fill="#ffe39e"/>
<rect x="650" y="120" width="5" height="5" fill="#f6dd8c"/>
<rect x="640" y="130" width="5" height="5" fill="#1b2733"/>
<rect x="650" y="130" width="5" height="5" fill="#ffe39e"/>
<rect x="660" y="60" width="35" height="85" fill="#243443"/>
<rect x="665" y="65" width="5" height="5" fill="#1b2733"/>
<rect x="675" y="65" width="5" height="5" fill="#1b2733"/>
<rect x="685" y="65" width="5" height="5" fill="#f4d27a"/>
<rect x="665" y="75" width="5" height="5" fill="#ffe39e"/>
<rect x="675" y="75" width="5" height="5" fill="#ffe39e"/>
<rect x="685" y="75" width="5" height="5" fill="#f4d27a"/>
<rect x="665" y="85" width="5" height="5" fill="#1b2733"/>
<rect x="675" y="85" width="5" height="5" fill="#ffe39e"/>
<rect x="685" y="85" width="5" height="5" fill="#ffe39e"/>
<rect x="665" y="95" width="5" height="5" fill="#1b2733"/>
<rect x="675" y="95" width="5" height="5" fill="#1b2733"/>
<rect x="685" y="95" width="5" height="5" fill="#f6dd8c"/>
<rect x="665" y="105" width="5" height="5" fill="#1b2733"/>
<rect x="675" y="105" width="5" height="5" fill="#f6dd8c"/>
<rect x="685" y="105" width="5" height="5" fill="#1b2733"/>
<rect x="665" y="115" width="5" height="5" fill="#f6dd8c"/>
<rect x="675" y="115" width="5" height="5" fill="#1b2733"/>
<rect x="685" y="115" width="5" height="5" fill="#1b2733"/>
<rect x="665" y="125" width="5" height="5" fill="#f4d27a"/>
<rect x="675" y="125" width="5" height="5" fill="#f6dd8c"/>
<rect x="685" y="125" width="5" height="5" fill="#ffe39e"/>
<rect x="665" y="135" width="5" height="5" fill="#ffe39e"/>
<rect x="675" y="135" width="5" height="5" fill="#f4d27a"/>
<rect x="685" y="135" width="5" height="5" fill="#ffe39e"/>
<rect x="695" y="55" width="35" height="90" fill="#2c3f50"/>
<rect x="710" y="45" width="5" height="10" fill="#2c3f50"/>
<rect x="710" y="40" width="5" height="5" fill="#e8edf2"/>
<rect x="700" y="60" width="5" height="5" fill="#ffe39e"/>
<rect x="710" y="60" width="5" height="5" fill="#f4d27a"/>
<rect x="720" y="60" width="5" height="5" fill="#1b2733"/>
<rect x="700" y="70" width="5" height="5" fill="#1b2733"/>
<rect x="710" y="70" width="5" height="5" fill="#1b2733"/>
<rect x="720" y="70" width="5" height="5" fill="#1b2733"/>
<rect x="700" y="80" width="5" height="5" fill="#ffe39e"/>
<rect x="710" y="80" width="5" height="5" fill="#ffe39e"/>
<rect x="720" y="80" width="5" height="5" fill="#f4d27a"/>
<rect x="700" y="90" width="5" height="5" fill="#f6dd8c"/>
<rect x="710" y="90" width="5" height="5" fill="#ffe39e"/>
<rect x="720" y="90" width="5" height="5" fill="#1b2733"/>
<rect x="700" y="100" width="5" height="5" fill="#1b2733"/>
<rect x="710" y="100" width="5" height="5" fill="#f4d27a"/>
<rect x="720" y="100" width="5" height="5" fill="#f6dd8c"/>
<rect x="700" y="110" width="5" height="5" fill="#1b2733"/>
<rect x="710" y="110" width="5" height="5" fill="#ffe39e"/>
<rect x="720" y="110" width="5" height="5" fill="#f6dd8c"/>
<rect x="700" y="120" width="5" height="5" fill="#1b2733"/>
<rect x="710" y="120" width="5" height="5" fill="#1b2733"/>
<rect x="720" y="120" width="5" height="5" fill="#f6dd8c"/>
<rect x="700" y="130" width="5" height="5" fill="#ffe39e"/>
<rect x="710" y="130" width="5" height="5" fill="#f4d27a"/>
<rect x="720" y="130" width="5" height="5" fill="#ffe39e"/>
<rect x="730" y="75" width="35" height="70" fill="#2c3f50"/>
<rect x="735" y="80" width="5" height="5" fill="#1b2733"/>
<rect x="745" y="80" width="5" height="5" fill="#1b2733"/>
<rect x="755" y="80" width="5" height="5" fill="#1b2733"/>
<rect x="735" y="90" width="5" height="5" fill="#1b2733"/>
<rect x="745" y="90" width="5" height="5" fill="#ffe39e"/>
<rect x="755" y="90" width="5" height="5" fill="#1b2733"/>
<rect x="735" y="100" width="5" height="5" fill="#1b2733"/>
<rect x="745" y="100" width="5" height="5" fill="#f6dd8c"/>
<rect x="755" y="100" width="5" height="5" fill="#ffe39e"/>
<rect x="735" y="110" width="5" height="5" fill="#f6dd8c"/>
<rect x="745" y="110" width="5" height="5" fill="#f4d27a"/>
<rect x="755" y="110" width="5" height="5" fill="#ffe39e"/>
<rect x="735" y="120" width="5" height="5" fill="#1b2733"/>
<rect x="745" y="120" width="5" height="5" fill="#f6dd8c"/>
<rect x="755" y="120" width="5" height="5" fill="#f6dd8c"/>
<rect x="735" y="130" width="5" height="5" fill="#1b2733"/>
<rect x="745" y="130" width="5" height="5" fill="#f4d27a"/>
<rect x="755" y="130" width="5" height="5" fill="#1b2733"/>
<rect x="765" y="80" width="35" height="65" fill="#243443"/>
<rect x="770" y="85" width="5" height="5" fill="#ffe39e"/>
<rect x="780" y="85" width="5" height="5" fill="#ffe39e"/>
<rect x="790" y="85" width="5" height="5" fill="#f4d27a"/>
<rect x="770" y="95" width="5" height="5" fill="#1b2733"/>
<rect x="780" y="95" width="5" height="5" fill="#f6dd8c"/>
<rect x="790" y="95" width="5" height="5" fill="#f4d27a"/>
<rect x="770" y="105" width="5" height="5" fill="#f4d27a"/>
<rect x="780" y="105" width="5" height="5" fill="#1b2733"/>
<rect x="790" y="105" width="5" height="5" fill="#f6dd8c"/>
<rect x="770" y="115" width="5" height="5" fill="#1b2733"/>
<rect x="780" y="115" width="5" height="5" fill="#1b2733"/>
<rect x="790" y="115" width="5" height="5" fill="#f4d27a"/>
<rect x="770" y="125" width="5" height="5" fill="#1b2733"/>
<rect x="780" y="125" width="5" height="5" fill="#ffe39e"/>
<rect x="790" y="125" width="5" height="5" fill="#f6dd8c"/>
<rect x="770" y="135" width="5" height="5" fill="#1b2733"/>
<rect x="780" y="135" width="5" height="5" fill="#1b2733"/>
<rect x="790" y="135" width="5" height="5" fill="#1b2733"/>
<rect x="805" y="55" width="40" height="90" fill="#34495c"/>
<rect x="825" y="45" width="5" height="10" fill="#34495c"/>
<rect x="825" y="40" width="5" height="5" fill="#e8edf2"/>
<rect x="810" y="60" width="5" height="5" fill="#1b2733"/>
<rect x="820" y="60" width="5" height="5" fill="#1b2733"/>
<rect x="830" y="60" width="5" height="5" fill="#f6dd8c"/>
<rect x="810" y="70" width="5" height="5" fill="#f6dd8c"/>
<rect x="820" y="70" width="5" height="5" fill="#1b2733"/>
<rect x="830" y="70" width="5" height="5" fill="#1b2733"/>
<rect x="810" y="80" width="5" height="5" fill="#1b2733"/>
<rect x="820" y="80" width="5" height="5" fill="#ffe39e"/>
<rect x="830" y="80" width="5" height="5" fill="#f4d27a"/>
<rect x="810" y="90" width="5" height="5" fill="#1b2733"/>
<rect x="820" y="90" width="5" height="5" fill="#f6dd8c"/>
<rect x="830" y="90" width="5" height="5" fill="#1b2733"/>
<rect x="810" y="100" width="5" height="5" fill="#f6dd8c"/>
<rect x="820" y="100" width="5" height="5" fill="#f4d27a"/>
<rect x="830" y="100" width="5" height="5" fill="#1b2733"/>
<rect x="810" y="110" width="5" height="5" fill="#1b2733"/>
<rect x="820" y="110" width="5" height="5" fill="#1b2733"/>
<rect x="830" y="110" width="5" height="5" fill="#1b2733"/>
<rect x="810" y="120" width="5" height="5" fill="#f6dd8c"/>
<rect x="820" y="120" width="5" height="5" fill="#f6dd8c"/>
<rect x="830" y="120" width="5" height="5" fill="#f4d27a"/>
<rect x="810" y="130" width="5" height="5" fill="#1b2733"/>
<rect x="820" y="130" width="5" height="5" fill="#f4d27a"/>
<rect x="830" y="130" width="5" height="5" fill="#1b2733"/>
<rect x="850" y="65" width="40" height="80" fill="#2c3f50"/>
<rect x="870" y="55" width="5" height="10" fill="#2c3f50"/>
<rect x="870" y="50" width="5" height="5" fill="#e8edf2"/>
<rect x="855" y="70" width="5" height="5" fill="#f6dd8c"/>
<rect x="865" y="70" width="5" height="5" fill="#ffe39e"/>
<rect x="875" y="70" width="5" height="5" fill="#f4d27a"/>
<rect x="855" y="80" width="5" height="5" fill="#ffe39e"/>
<rect x="865" y="80" width="5" height="5" fill="#ffe39e"/>
<rect x="875" y="80" width="5" height="5" fill="#1b2733"/>
<rect x="855" y="90" width="5" height="5" fill="#ffe39e"/>
<rect x="865" y="90" width="5" height="5" fill="#f6dd8c"/>
<rect x="875" y="90" width="5" height="5" fill="#1b2733"/>
<rect x="855" y="100" width="5" height="5" fill="#ffe39e"/>
<rect x="865" y="100" width="5" height="5" fill="#f4d27a"/>
<rect x="875" y="100" width="5" height="5" fill="#f6dd8c"/>
<rect x="855" y="110" width="5" height="5" fill="#ffe39e"/>
<rect x="865" y="110" width="5" height="5" fill="#f4d27a"/>
<rect x="875" y="110" width="5" height="5" fill="#ffe39e"/>
<rect x="855" y="120" width="5" height="5" fill="#1b2733"/>
<rect x="865" y="120" width="5" height="5" fill="#f6dd8c"/>
<rect x="875" y="120" width="5" height="5" fill="#1b2733"/>
<rect x="855" y="130" width="5" height="5" fill="#f4d27a"/>
<rect x="865" y="130" width="5" height="5" fill="#ffe39e"/>
<rect x="875" y="130" width="5" height="5" fill="#f4d27a"/>
<rect x="890" y="100" width="35" height="45" fill="#34495c"/>
<rect x="895" y="105" width="5" height="5" fill="#ffe39e"/>
<rect x="905" y="105" width="5" height="5" fill="#f6dd8c"/>
<rect x="915" y="105" width="5" height="5" fill="#f6dd8c"/>
<rect x="895" y="115" width="5" height="5" fill="#f4d27a"/>
<rect x="905" y="115" width="5" height="5" fill="#1b2733"/>
<rect x="915" y="115" width="5" height="5" fill="#1b2733"/>
<rect x="895" y="125" width="5" height="5" fill="#1b2733"/>
<rect x="905" y="125" width="5" height="5" fill="#1b2733"/>
<rect x="915" y="125" width="5" height="5" fill="#1b2733"/>
<rect x="895" y="135" width="5" height="5" fill="#f6dd8c"/>
<rect x="905" y="135" width="5" height="5" fill="#f4d27a"/>
<rect x="915" y="135" width="5" height="5" fill="#1b2733"/>
<rect x="925" y="75" width="50" height="70" fill="#34495c"/>
<rect x="930" y="80" width="5" height="5" fill="#ffe39e"/>
<rect x="940" y="80" width="5" height="5" fill="#1b2733"/>
<rect x="950" y="80" width="5" height="5" fill="#f6dd8c"/>
<rect x="960" y="80" width="5" height="5" fill="#1b2733"/>
<rect x="930" y="90" width="5" height="5" fill="#1b2733"/>
<rect x="940" y="90" width="5" height="5" fill="#1b2733"/>
<rect x="950" y="90" width="5" height="5" fill="#ffe39e"/>
<rect x="960" y="90" width="5" height="5" fill="#1b2733"/>
<rect x="930" y="100" width="5" height="5" fill="#ffe39e"/>
<rect x="940" y="100" width="5" height="5" fill="#f6dd8c"/>
<rect x="950" y="100" width="5" height="5" fill="#1b2733"/>
<rect x="960" y="100" width="5" height="5" fill="#1b2733"/>
<rect x="930" y="110" width="5" height="5" fill="#ffe39e"/>
<rect x="940" y="110" width="5" height="5" fill="#1b2733"/>
<rect x="950" y="110" width="5" height="5" fill="#f6dd8c"/>
<rect x="960" y="110" width="5" height="5" fill="#f4d27a"/>
<rect x="930" y="120" width="5" height="5" fill="#f4d27a"/>
<rect x="940" y="120" width="5" height="5" fill="#f4d27a"/>
<rect x="950" y="120" width="5" height="5" fill="#1b2733"/>
<rect x="960" y="120" width="5" height="5" fill="#f6dd8c"/>
<rect x="930" y="130" width="5" height="5" fill="#1b2733"/>
<rect x="940" y="130" width="5" height="5" fill="#ffe39e"/>
<rect x="950" y="130" width="5" height="5" fill="#f4d27a"/>
<rect x="960" y="130" width="5" height="5" fill="#1b2733"/>
<rect x="975" y="75" width="25" height="70" fill="#34495c"/>
<rect x="980" y="80" width="5" height="5" fill="#1b2733"/>
<rect x="990" y="80" width="5" height="5" fill="#1b2733"/>
<rect x="980" y="90" width="5" height="5" fill="#f6dd8c"/>
<rect x="990" y="90" width="5" height="5" fill="#1b2733"/>
<rect x="980" y="100" width="5" height="5" fill="#1b2733"/>
<rect x="990" y="100" width="5" height="5" fill="#f4d27a"/>
<rect x="980" y="110" width="5" height="5" fill="#ffe39e"/>
<rect x="990" y="110" width="5" height="5" fill="#ffe39e"/>
<rect x="980" y="120" width="5" height="5" fill="#f6dd8c"/>
<rect x="990" y="120" width="5" height="5" fill="#ffe39e"/>
<rect x="980" y="130" width="5" height="5" fill="#1b2733"/>
<rect x="990" y="130" width="5" height="5" fill="#f6dd8c"/>
<rect x="0" y="145" width="1000" height="5" fill="#1b2733"/>
</svg>
