<svg width="1379" height="300" viewBox="0 0 1379 300" fill="none" xmlns="http://www.w3.org/2000/svg">
<path d="M1379 72.4852V77.6876C1369.32 77.6876 1356.87 80.8089 1351.69 97.1095L1297.4 263.931C1288.76 290.983 1281.5 300 1260.06 300C1234.13 300 1220.64 283.353 1223.75 260.116L1246.23 262.89C1244.15 283.353 1253.84 289.595 1262.13 289.595C1273.54 289.595 1277.35 282.659 1283.57 263.931L1294.64 229.248H1281.15L1238.28 97.1095C1233.09 80.8089 1220.3 77.6876 1210.62 77.6876V72.4852H1254.18L1299.82 213.295L1337.51 97.1095C1342.7 80.8089 1329.21 77.6876 1313.31 77.6876V72.4852H1379Z" fill="white"/>
<path d="M1195.01 8.3241V203.585C1195.01 220.232 1204.69 224.047 1214.37 224.047V229.249H1152.83V224.047C1162.51 224.047 1172.53 220.232 1172.53 203.585V33.9889C1172.53 17.3415 1162.51 13.5264 1152.83 13.5264V8.3241H1195.01Z" fill="white"/>
<path d="M1125.64 123.121V203.584C1125.64 220.231 1135.32 224.046 1145 224.046V229.249H1083.11V224.046C1092.45 224.046 1102.82 220.231 1102.82 203.584V126.936C1102.82 96.0694 1095.56 81.5029 1074.12 81.5029C1050.96 81.5029 1030.56 104.046 1030.56 166.821V203.584C1030.56 220.231 1040.24 224.046 1049.92 224.046V229.249H988.376V224.046C997.711 224.046 1008.08 220.231 1008.08 203.584V98.1503C1008.08 81.5029 997.711 77.6879 988.376 77.6879V72.4855H1030.56V114.451H1031.6C1035.4 92.6012 1052 69.3641 1081.38 69.3641C1111.47 69.3641 1125.64 89.1329 1125.64 123.121Z" fill="white"/>
<path d="M951.339 42.659L930.248 21.1561L951.339 0L972.43 21.1561L951.339 42.659ZM963.095 72.4856V203.584C963.095 220.232 972.776 224.047 982.457 224.047V229.249H920.567V224.047C930.248 224.047 940.275 220.232 940.275 203.584V98.1504C940.275 81.503 930.248 77.688 920.567 77.688V72.4856H963.095Z" fill="white"/>
<path d="M891.915 143.931V203.584C891.915 220.231 901.596 224.046 911.277 224.046V229.249H870.824V181.041H869.441C863.909 203.931 851.115 231.677 817.577 231.677C792.683 231.677 774.703 216.763 774.703 177.572C774.703 169.249 775.74 159.538 777.469 149.827L870.478 140.809V132.832C870.478 105.78 863.217 80.8092 832.445 80.8092C808.933 80.8092 798.906 95.0289 798.906 108.902C798.906 115.491 800.981 121.041 804.093 123.121V124.509L780.235 126.936C778.852 123.121 777.815 118.266 777.815 113.064C777.815 91.9075 793.72 69.3641 834.173 69.3641C888.803 69.3641 891.915 112.023 891.915 143.931ZM825.529 217.11C855.61 217.11 867.366 181.734 869.786 147.399L799.598 158.844C797.869 165.78 797.523 172.717 797.523 179.307C797.523 203.237 805.476 217.11 825.529 217.11Z" fill="white"/>
<path d="M760.548 72.4858V86.3586H707.993V185.896C707.993 207.746 717.329 216.417 732.542 216.417C751.904 216.417 756.053 199.769 756.399 196.648H760.548C760.203 200.81 758.128 231.677 724.59 231.677C697.62 231.677 685.173 215.029 685.173 186.937V86.3586H662.699V76.9944C688.285 71.7921 699.695 55.8383 702.461 23.9308H707.993V77.6881L730.813 72.4858H760.548Z" fill="white"/>
<path d="M626.861 70.4045C638.617 70.4045 648.644 75.26 652.447 81.5028L643.112 108.208L641.037 107.514C641.729 97.8034 634.814 88.786 620.292 88.786C598.855 88.786 579.493 110.289 579.493 182.775V203.584C579.493 220.231 589.174 224.046 598.855 224.046V229.249H537.31V224.046C546.646 224.046 557.018 220.231 557.018 203.584V98.1502C557.018 81.5028 546.646 77.6877 537.31 77.6877V72.4854H579.493V128.324H580.53C583.988 104.393 597.472 70.4045 626.861 70.4045Z" fill="white"/>
<path d="M519.874 181.734L524.369 182.775C521.949 194.22 509.847 231.677 464.553 231.677C419.259 231.677 395.401 201.503 395.401 149.827C395.401 97.4567 422.371 69.3641 464.207 69.3641C505.698 69.3641 522.294 95.3757 522.294 129.711C522.294 136.301 521.603 142.543 520.911 149.48L419.259 150.174C420.642 194.22 439.313 217.804 470.777 217.804C505.352 217.804 517.108 190.752 519.874 181.734ZM463.516 80.8092C441.387 80.8092 419.95 96.763 419.259 142.89L496.363 138.035C497.746 133.179 498.437 127.63 498.437 121.734C498.437 100.925 487.373 80.8092 463.516 80.8092Z" fill="white"/>
<path d="M379.694 132.139L353.417 129.364C354.454 124.509 355.145 118.266 355.145 113.757C355.145 93.6416 343.735 80.8092 323.681 80.8092C294.984 80.8092 277.35 106.474 277.35 145.318C277.004 193.179 298.095 218.151 328.522 218.151C358.949 218.151 372.433 194.913 377.62 177.919L382.114 179.307C377.965 198.729 363.789 231.677 323.681 231.677C279.77 231.677 253.493 203.584 253.493 150.174C253.493 95.7226 283.574 69.3641 324.719 69.3641C359.64 69.3641 380.731 90.8671 380.731 121.041C380.731 124.509 380.386 128.324 379.694 132.139Z" fill="white"/>
<ellipse cx="50.6985" cy="91.5382" rx="50.6985" ry="50.8546" fill="white"/>
<ellipse cx="152.096" cy="91.5382" rx="50.6985" ry="50.8546" fill="white"/>
<ellipse cx="50.6985" cy="193.247" rx="50.6985" ry="50.8546" fill="white"/>
<ellipse cx="152.096" cy="193.247" rx="50.6985" ry="50.8546" fill="white"/>
</svg>
