<svg width="1093" height="316" viewBox="0 0 1093 316" fill="none" xmlns="http://www.w3.org/2000/svg">
<path d="M364.816 0H454.217C531.559 6.66971 508.99 88.121 512.291 141.681C510.607 167.08 494.438 189.447 469.443 195.982L521.79 315.902H454.15L402.544 199.081H365.827L364.816 198.07V139.997H437.846C438.385 139.997 442.023 138.514 442.764 138.11C446.941 135.752 448.693 131.373 449.097 126.792C450.579 109.275 448.019 89.5358 449.03 71.8173C449.299 67.3034 442.832 59.8253 438.587 59.8253H365.894L364.884 58.8147V0.0673595L364.816 0Z" fill="black"/>
<path d="M76.0615 0H168.831C201.775 2.08849 225.018 24.9946 226.905 58.0736V258.569C224.816 290.84 201.641 313.746 169.505 315.969H76.0615V257.154L77.0721 256.144H153.201C156.098 256.144 162.498 250.754 162.835 247.453C164.856 189.312 163.172 130.699 163.711 72.3562C163.239 68.1119 161.488 64.2717 157.85 61.9138C157.243 61.5095 153.471 59.7579 153.201 59.7579H77.0721L76.0615 58.7473V0Z" fill="black"/>
<path d="M613.545 0L694.39 315.902H637.327L541.525 0H613.545Z" fill="black"/>
<path d="M63.1938 0H0V315.902H63.1938V0Z" fill="black"/>
<path d="M351.947 0H288.753V315.902H351.947V0Z" fill="black"/>
<path d="M1087.1 315.902H1024.98L854.735 0H916.919L1087.1 315.902Z" fill="black"/>
<path d="M807.166 0L710.354 315.969C708.939 315.969 707.255 316.306 706.716 314.756L680.846 214.374L737.505 0H807.166Z" fill="black"/>
<path d="M908.426 315.901H849.274V15.6298L908.426 124.636V315.901Z" fill="black"/>
<path d="M1092.55 0V299.598L1089.73 295.286L1033.47 190.525V0H1092.55Z" fill="black"/>
</svg>
