<svg width="200" height="126" viewBox="0 0 200 126" fill="none" xmlns="http://www.w3.org/2000/svg">
<path d="M68.8917 0.277296C68.8917 0.163946 68.9672 0.0883789 69.0806 0.0883789H69.3073C69.4206 0.0883789 69.4962 0.163946 69.4962 0.277296V10.3655C69.4962 10.4788 69.4206 10.5544 69.3073 10.5544H69.0806C68.9672 10.5544 68.8917 10.4788 68.8917 10.3655V0.277296Z" fill="#3D3E46"/>
<path d="M73.4383 0.0883789H73.6398C73.7153 0.0883789 73.8287 0.151351 73.8917 0.214324L81.3476 9.45866V0.277296C81.3476 0.163946 81.4231 0.0883789 81.5365 0.0883789H81.7506C81.8388 0.0883789 81.9395 0.163946 81.9395 0.277296V10.3781C81.9395 10.4914 81.864 10.5544 81.7632 10.5544H81.5743C81.4987 10.5544 81.3854 10.4914 81.3224 10.4284L73.8665 1.1715V10.3529C73.8665 10.4662 73.7909 10.5418 73.6776 10.5418H73.4635C73.3501 10.5418 73.2745 10.4662 73.2745 10.3529V0.252107C73.2745 0.151351 73.3375 0.0883789 73.4383 0.0883789Z" fill="#3D3E46"/>
<path d="M84.8237 0.0883789H93.9043C94.0176 0.0883789 94.0932 0.163946 94.0932 0.277296V0.478807C94.0932 0.592157 94.0176 0.667724 93.9043 0.667724H89.66V10.3655C89.66 10.4788 89.5844 10.5544 89.471 10.5544H89.2569C89.1436 10.5544 89.068 10.4788 89.068 10.3655V0.667724H84.8237C84.7103 0.667724 84.6348 0.592157 84.6348 0.478807V0.277296C84.6348 0.17654 84.7103 0.0883789 84.8237 0.0883789Z" fill="#3D3E46"/>
<path d="M96.9773 0.0883789H103.929C104.043 0.0883789 104.118 0.163946 104.118 0.277296V0.478807C104.118 0.592157 104.043 0.667724 103.929 0.667724H97.3929V4.96243H103.237C103.35 4.96243 103.426 5.038 103.426 5.15135V5.36545C103.426 5.4788 103.35 5.55437 103.237 5.55437H97.3929V9.98762H104.005C104.118 9.98762 104.194 10.0632 104.194 10.1765V10.378C104.194 10.4914 104.118 10.567 104.005 10.567H96.9773C96.864 10.567 96.7884 10.4914 96.7884 10.378V0.277296C96.7884 0.17654 96.8766 0.0883789 96.9773 0.0883789Z" fill="#3D3E46"/>
<path d="M107.317 0.0883789H111.738C113.552 0.0883789 114.899 1.4108 114.899 3.13624C114.899 4.63498 113.904 5.81886 112.494 6.12113L115.164 10.3781C115.214 10.4536 115.176 10.5292 115.076 10.5292H114.761C114.647 10.5292 114.509 10.4536 114.471 10.3781L111.839 6.19669C111.814 6.19669 111.776 6.19669 111.751 6.19669H107.758V10.3529C107.758 10.4662 107.683 10.5418 107.569 10.5418H107.343C107.229 10.5418 107.154 10.4662 107.154 10.3529V0.277296C107.128 0.17654 107.204 0.0883789 107.317 0.0883789ZM107.733 0.667724V5.62994H111.725C113.186 5.62994 114.27 4.57201 114.27 3.14883C114.27 1.73825 113.186 0.667724 111.725 0.667724H107.733V0.667724Z" fill="#3D3E46"/>
<path d="M118.237 0.0883789H118.438C118.514 0.0883789 118.627 0.151351 118.69 0.214324L126.146 9.45866V0.277296C126.146 0.163946 126.222 0.0883789 126.335 0.0883789H126.549C126.637 0.0883789 126.738 0.163946 126.738 0.277296V10.3781C126.738 10.4914 126.662 10.5544 126.562 10.5544H126.373C126.297 10.5544 126.184 10.4914 126.121 10.4284L118.665 1.1715V10.3529C118.665 10.4662 118.589 10.5418 118.476 10.5418H118.262C118.149 10.5418 118.073 10.4662 118.073 10.3529V0.252107C118.073 0.151351 118.136 0.0883789 118.237 0.0883789Z" fill="#3D3E46"/>
<path d="M134.055 0.226918C134.081 0.151351 134.181 0.0883789 134.27 0.0883789H134.408C134.496 0.0883789 134.597 0.151351 134.622 0.226918L139.194 10.3781C139.257 10.4914 139.194 10.5544 139.081 10.5544H138.816C138.703 10.5544 138.602 10.4914 138.552 10.3781L137.38 7.771H131.297L130.126 10.3781C130.076 10.4914 129.975 10.5544 129.861 10.5544H129.597C129.484 10.5544 129.421 10.4914 129.484 10.3781L134.055 0.226918ZM131.562 7.20425H137.141L134.358 1.03296L131.562 7.20425Z" fill="#3D3E46"/>
<path d="M139.458 0.0883789H148.539C148.652 0.0883789 148.728 0.163946 148.728 0.277296V0.478807C148.728 0.592157 148.652 0.667724 148.539 0.667724H144.295V10.3655C144.295 10.4788 144.219 10.5544 144.106 10.5544H143.892C143.778 10.5544 143.703 10.4788 143.703 10.3655V0.667724H139.458C139.345 0.667724 139.27 0.592157 139.27 0.478807V0.277296C139.27 0.17654 139.345 0.0883789 139.458 0.0883789Z" fill="#3D3E46"/>
<path d="M151.436 0.277296C151.436 0.163946 151.511 0.0883789 151.625 0.0883789H151.851C151.965 0.0883789 152.04 0.163946 152.04 0.277296V10.3655C152.04 10.4788 151.965 10.5544 151.851 10.5544H151.625C151.511 10.5544 151.436 10.4788 151.436 10.3655V0.277296Z" fill="#3D3E46"/>
<path d="M160.605 0C163.64 0 165.932 2.2796 165.932 5.31486C165.932 8.35013 163.64 10.6549 160.605 10.6549C157.569 10.6549 155.277 8.35013 155.277 5.31486C155.277 2.2796 157.569 0 160.605 0ZM160.605 10.0756C163.3 10.0756 165.315 8.03526 165.315 5.31486C165.315 2.61965 163.3 0.579345 160.605 0.579345C157.922 0.579345 155.894 2.61965 155.894 5.31486C155.894 8.02267 157.922 10.0756 160.605 10.0756Z" fill="#3D3E46"/>
<path d="M169.345 0.0883789H169.547C169.622 0.0883789 169.735 0.151351 169.798 0.214324L177.254 9.45866V0.277296C177.254 0.163946 177.33 0.0883789 177.443 0.0883789H177.657C177.746 0.0883789 177.846 0.163946 177.846 0.277296V10.3781C177.846 10.4914 177.771 10.5544 177.67 10.5544H177.481C177.406 10.5544 177.292 10.4914 177.229 10.4284L169.773 1.1715V10.3529C169.773 10.4662 169.698 10.5418 169.584 10.5418H169.37C169.257 10.5418 169.181 10.4662 169.181 10.3529V0.252107C169.181 0.151351 169.244 0.0883789 169.345 0.0883789Z" fill="#3D3E46"/>
<path d="M185.151 0.226918C185.176 0.151351 185.277 0.0883789 185.365 0.0883789H185.504C185.592 0.0883789 185.693 0.151351 185.718 0.226918L190.29 10.3781C190.353 10.4914 190.29 10.5544 190.176 10.5544H189.912C189.798 10.5544 189.698 10.4914 189.647 10.3781L188.476 7.771H182.393L181.222 10.3781C181.171 10.4914 181.071 10.5544 180.957 10.5544H180.693C180.579 10.5544 180.516 10.4914 180.579 10.3781L185.151 0.226918ZM182.657 7.20425H188.237L185.453 1.03296L182.657 7.20425Z" fill="#3D3E46"/>
<path d="M193.237 0.0883789H193.463C193.577 0.0883789 193.652 0.163946 193.652 0.277296V9.97503H199.559C199.673 9.97503 199.748 10.0506 199.748 10.1639V10.3655C199.748 10.4788 199.673 10.5544 199.559 10.5544H193.237C193.123 10.5544 193.048 10.4788 193.048 10.3655V0.277296C193.06 0.17654 193.136 0.0883789 193.237 0.0883789Z" fill="#3D3E46"/>
<path d="M69.6599 15.5415C70.1259 15.5415 70.5793 15.8564 70.7179 16.3224L73.2368 24.408L75.7053 16.2594C75.8312 15.8438 76.2468 15.5415 76.6624 15.5415H77.5063C77.9471 15.5415 78.3627 15.8438 78.4886 16.2594L80.9697 24.408L83.476 16.3224C83.602 15.8564 84.0554 15.5415 84.534 15.5415H85.8186C86.2846 15.5415 86.5239 15.8816 86.3602 16.3224L82.3299 28.3375C82.1914 28.7405 81.7632 29.0554 81.3224 29.0554H80.4786C80.0629 29.0554 79.6347 28.7531 79.5214 28.3375L77.1032 20.5415L74.6599 28.3375C74.534 28.7531 74.1184 29.0554 73.6776 29.0554H72.8337C72.4181 29.0554 71.9899 28.7405 71.8514 28.3375L67.8086 16.3224C67.6448 15.8816 67.8841 15.5415 68.3753 15.5415H69.6599V15.5415Z" fill="#3D3E46"/>
<path d="M88.9798 15.5415H97.3677C97.8463 15.5415 98.1864 15.8816 98.1864 16.3601V17.3551C98.1864 17.8211 97.8463 18.1737 97.3677 18.1737H91.0201V20.9193H96.2846C96.7506 20.9193 97.1033 21.2594 97.1033 21.7254V22.7203C97.1033 23.1989 96.738 23.539 96.2846 23.539H91.0201V26.4231H97.4685C97.9471 26.4231 98.2871 26.7632 98.2871 27.2292V28.2241C98.2871 28.6901 97.9471 29.0428 97.4685 29.0428H88.9798C88.5138 29.0428 88.1612 28.6775 88.1612 28.2241V16.3727C88.1612 15.8816 88.5138 15.5415 88.9798 15.5415Z" fill="#3D3E46"/>
<path d="M101.071 15.5415H102.292C102.758 15.5415 103.111 15.8816 103.111 16.3601V26.4357H108.942C109.408 26.4357 109.761 26.7758 109.761 27.2418V28.2367C109.761 28.7027 109.395 29.0554 108.942 29.0554H101.071C100.605 29.0554 100.252 28.6901 100.252 28.2367V16.3727C100.252 15.8816 100.617 15.5415 101.071 15.5415Z" fill="#3D3E46"/>
<path d="M112.406 15.5415H113.627C114.093 15.5415 114.446 15.8816 114.446 16.3601V26.4357H120.277C120.743 26.4357 121.096 26.7758 121.096 27.2418V28.2367C121.096 28.7027 120.73 29.0554 120.277 29.0554H112.406C111.94 29.0554 111.587 28.6901 111.587 28.2367V16.3727C111.587 15.8816 111.952 15.5415 112.406 15.5415Z" fill="#3D3E46"/>
<path d="M68.8917 44.1184V34.0302C68.8917 33.9169 68.9672 33.8413 69.0806 33.8413H73.7279C75.2771 33.8413 76.4357 34.9622 76.4357 36.4232C76.4357 37.4559 75.8564 38.3123 75 38.728C76.1964 39.1058 77.0277 40.1385 77.0277 41.4232C77.0277 43.0479 75.7305 44.2947 74.0176 44.2947H69.0806C68.9672 44.3073 68.8917 44.2191 68.8917 44.1184ZM69.4962 34.4207V38.5139H73.7279C74.9244 38.5139 75.8312 37.6322 75.8312 36.4735C75.8312 35.3149 74.9118 34.4332 73.7279 34.4332H69.4962V34.4207ZM69.4962 39.0932V43.728H74.0176C75.3778 43.728 76.3854 42.733 76.3854 41.4106C76.3854 40.0882 75.3778 39.1058 74.0176 39.1058H69.4962V39.0932Z" fill="#3D3E46"/>
<path d="M79.9874 40.126V34.0429C79.9874 33.9296 80.0629 33.854 80.1763 33.854H80.403C80.5163 33.854 80.5919 33.9296 80.5919 34.0429V40.126C80.5919 42.2293 82.1662 43.8288 84.2947 43.8288C86.4231 43.8288 87.9974 42.2293 87.9974 40.126V34.0429C87.9974 33.9296 88.0856 33.854 88.1864 33.854H88.4131C88.5264 33.854 88.602 33.9296 88.602 34.0429V40.126C88.602 42.5568 86.7632 44.4208 84.2947 44.4208C81.8262 44.4082 79.9874 42.5568 79.9874 40.126Z" fill="#3D3E46"/>
<path d="M92.2292 34.0302C92.2292 33.9169 92.3048 33.8413 92.4181 33.8413H92.6448C92.7582 33.8413 92.8337 33.9169 92.8337 34.0302V44.1184C92.8337 44.2317 92.7582 44.3073 92.6448 44.3073H92.4181C92.3048 44.3073 92.2292 44.2317 92.2292 44.1184V34.0302Z" fill="#3D3E46"/>
<path d="M96.7884 33.8413H97.0151C97.1285 33.8413 97.204 33.9169 97.204 34.0302V43.728H103.111C103.224 43.728 103.3 43.8035 103.3 43.9169V44.1184C103.3 44.2317 103.224 44.3073 103.111 44.3073H96.7884C96.6751 44.3073 96.5995 44.2317 96.5995 44.1184V34.0302C96.6121 33.9295 96.6876 33.8413 96.7884 33.8413Z" fill="#3D3E46"/>
<path d="M106.133 34.0302C106.133 33.9169 106.209 33.8413 106.322 33.8413H110.151C113.186 33.8413 115.479 36.1209 115.479 39.068C115.479 42.0151 113.186 44.3073 110.151 44.3073H106.322C106.209 44.3073 106.133 44.2317 106.133 44.1184V34.0302ZM106.738 34.4207V43.728H110.151C112.834 43.728 114.861 41.7003 114.861 39.068C114.861 36.461 112.834 34.4207 110.151 34.4207H106.738V34.4207Z" fill="#3D3E46"/>
<path d="M118.715 34.0302C118.715 33.9169 118.791 33.8413 118.904 33.8413H119.131C119.244 33.8413 119.32 33.9169 119.32 34.0302V44.1184C119.32 44.2317 119.244 44.3073 119.131 44.3073H118.904C118.791 44.3073 118.715 44.2317 118.715 44.1184V34.0302Z" fill="#3D3E46"/>
<path d="M123.249 33.8413H123.451C123.526 33.8413 123.64 33.9043 123.703 33.9673L131.159 43.2116V34.0302C131.159 33.9169 131.234 33.8413 131.348 33.8413H131.562C131.65 33.8413 131.751 33.9169 131.751 34.0302V44.131C131.751 44.2443 131.675 44.3073 131.574 44.3073H131.385C131.31 44.3073 131.196 44.2443 131.133 44.1814L123.678 34.937V44.1184C123.678 44.2317 123.602 44.3073 123.489 44.3073H123.275C123.161 44.3073 123.086 44.2317 123.086 44.1184V34.005C123.098 33.9043 123.161 33.8413 123.249 33.8413Z" fill="#3D3E46"/>
<path d="M140.264 44.4078C137.28 44.4078 134.987 42.1031 134.987 39.0678C134.987 36.0325 137.317 33.7529 140.416 33.7529C142.355 33.7529 143.98 34.6345 144.912 36.0577C144.975 36.1333 144.962 36.2466 144.849 36.2844L144.622 36.3726C144.597 36.3852 144.572 36.3852 144.547 36.3852C144.471 36.3852 144.408 36.3348 144.358 36.2718C143.501 35.0628 142.078 34.3071 140.428 34.3071C137.708 34.3071 135.63 36.3474 135.63 39.0426C135.63 41.7504 137.657 43.8033 140.277 43.8033C142.771 43.8033 144.736 42.0023 144.924 39.5464H139.924C139.811 39.5464 139.736 39.4708 139.736 39.3575V39.156C139.736 39.0426 139.811 38.967 139.924 38.967H145.378C145.491 38.967 145.567 39.0426 145.567 39.156C145.416 42.3298 143.149 44.4078 140.264 44.4078Z" fill="#3D3E46"/>
<path d="M68.8917 49.2695C68.8917 49.1561 68.9672 49.0806 69.0806 49.0806H69.3073C69.4206 49.0806 69.4962 49.1561 69.4962 49.2695V59.3576C69.4962 59.471 69.4206 59.5466 69.3073 59.5466H69.0806C68.9672 59.5466 68.8917 59.471 68.8917 59.3576V49.2695Z" fill="#3D3E46"/>
<path d="M73.4383 49.0806H73.6398C73.7153 49.0806 73.8287 49.1435 73.8917 49.2065L81.3476 58.4508V49.2695C81.3476 49.1561 81.4231 49.0806 81.5365 49.0806H81.7506C81.8388 49.0806 81.9395 49.1561 81.9395 49.2695V59.3702C81.9395 59.4836 81.864 59.5466 81.7632 59.5466H81.5743C81.4987 59.5466 81.3854 59.4836 81.3224 59.4206L73.8665 50.1763V59.3576C73.8665 59.471 73.7909 59.5466 73.6776 59.5466H73.4635C73.3501 59.5466 73.2745 59.471 73.2745 59.3576V49.2443C73.2745 49.1435 73.3375 49.0806 73.4383 49.0806Z" fill="#3D3E46"/>
<path d="M88.8665 49.572C87.2544 49.572 86.0327 50.4914 86.0327 51.7509C86.0327 53.1237 87.4937 53.5267 89.0554 53.9045C90.743 54.2572 92.5692 54.7987 92.5692 56.6879C92.5692 58.4259 91.0075 59.6476 88.8917 59.6476C87.0025 59.6476 85.5667 58.6778 85.2015 57.3176C85.1763 57.2295 85.2267 57.1287 85.34 57.1035L85.5919 57.0153C85.6045 57.0153 85.6171 57.0153 85.6171 57.0153C85.6927 57.0153 85.7556 57.0657 85.7934 57.1413C86.0705 58.2622 87.2922 59.0682 88.8917 59.0682C90.6423 59.0682 91.9647 58.0985 91.9647 56.7257C91.9647 55.3151 90.5415 54.8491 88.9294 54.509C87.3174 54.1312 85.4408 53.64 85.4408 51.7635C85.4408 50.1262 86.8765 48.9927 88.8539 48.9927C90.6045 48.9927 91.9521 49.8869 92.3048 51.1463C92.33 51.2345 92.2796 51.3352 92.1662 51.3604L91.9017 51.4486C91.8262 51.4612 91.7506 51.4234 91.7002 51.3227C91.4483 50.3151 90.3022 49.572 88.8665 49.572Z" fill="#3D3E46"/>
<path d="M94.6096 49.0806H103.69C103.804 49.0806 103.879 49.1561 103.879 49.2695V49.471C103.879 49.5843 103.804 49.6599 103.69 49.6599H99.4458V59.3576C99.4458 59.471 99.3703 59.5466 99.2569 59.5466H99.0428C98.9295 59.5466 98.8539 59.471 98.8539 59.3576V49.6599H94.6096C94.4962 49.6599 94.4207 49.5843 94.4207 49.471V49.2695C94.4207 49.1687 94.4962 49.0806 94.6096 49.0806Z" fill="#3D3E46"/>
<path d="M106.587 49.2695C106.587 49.1561 106.662 49.0806 106.776 49.0806H107.003C107.116 49.0806 107.191 49.1561 107.191 49.2695V59.3576C107.191 59.471 107.116 59.5466 107.003 59.5466H106.776C106.662 59.5466 106.587 59.471 106.587 59.3576V49.2695Z" fill="#3D3E46"/>
<path d="M110.088 49.0806H119.169C119.282 49.0806 119.358 49.1561 119.358 49.2695V49.471C119.358 49.5843 119.282 49.6599 119.169 49.6599H114.924V59.3576C114.924 59.471 114.849 59.5466 114.735 59.5466H114.521C114.408 59.5466 114.332 59.471 114.332 59.3576V49.6599H110.088C109.975 49.6599 109.899 49.5843 109.899 49.471V49.2695C109.899 49.1687 109.975 49.0806 110.088 49.0806Z" fill="#3D3E46"/>
<path d="M121.662 55.3653V49.2822C121.662 49.1688 121.738 49.0933 121.851 49.0933H122.078C122.191 49.0933 122.267 49.1688 122.267 49.2822V55.3653C122.267 57.4686 123.841 59.0681 125.97 59.0681C128.098 59.0681 129.673 57.4686 129.673 55.3653V49.2822C129.673 49.1688 129.761 49.0933 129.861 49.0933H130.088C130.202 49.0933 130.277 49.1688 130.277 49.2822V55.3653C130.277 57.796 128.438 59.66 125.97 59.66C123.501 59.6474 121.662 57.796 121.662 55.3653Z" fill="#3D3E46"/>
<path d="M132.771 49.0806H141.851C141.965 49.0806 142.04 49.1561 142.04 49.2695V49.471C142.04 49.5843 141.965 49.6599 141.851 49.6599H137.607V59.3576C137.607 59.471 137.531 59.5466 137.418 59.5466H137.204C137.091 59.5466 137.015 59.471 137.015 59.3576V49.6599H132.771C132.657 49.6599 132.582 49.5843 132.582 49.471V49.2695C132.582 49.1687 132.657 49.0806 132.771 49.0806Z" fill="#3D3E46"/>
<path d="M144.924 49.0806H151.877C151.99 49.0806 152.066 49.1561 152.066 49.2695V49.471C152.066 49.5843 151.99 49.6599 151.877 49.6599H145.34V53.9546H151.184C151.297 53.9546 151.373 54.0302 151.373 54.1435V54.3576C151.373 54.471 151.297 54.5466 151.184 54.5466H145.34V58.9798H151.952C152.066 58.9798 152.141 59.0554 152.141 59.1687V59.3702C152.141 59.4836 152.066 59.5592 151.952 59.5592H144.924C144.811 59.5592 144.736 59.4836 144.736 59.3702V49.2821C144.736 49.1687 144.811 49.0806 144.924 49.0806Z" fill="#3D3E46"/>
<path d="M153.929 49.0806H158.312C158.388 49.0806 158.451 49.1435 158.451 49.2191V49.3576C158.451 49.4332 158.388 49.4962 158.312 49.4962H156.335V54.1561C156.335 54.2317 156.272 54.2947 156.196 54.2947H156.045C155.97 54.2947 155.907 54.2317 155.907 54.1561V49.4962H153.942C153.866 49.4962 153.803 49.4332 153.803 49.3576V49.2191C153.791 49.1435 153.854 49.0806 153.929 49.0806ZM159.408 49.2191C159.408 49.1435 159.471 49.0806 159.547 49.0806H159.723C159.798 49.0806 159.899 49.1435 159.924 49.2065L162.128 53.0226L164.307 49.2065C164.358 49.1435 164.446 49.0806 164.534 49.0806H164.672C164.761 49.0806 164.824 49.1435 164.824 49.2191V54.1561C164.824 54.2317 164.761 54.2947 164.672 54.2947H164.534C164.446 54.2947 164.383 54.2317 164.383 54.1561V49.9118L162.305 53.5516C162.28 53.5768 162.217 53.6146 162.166 53.6146H162.053C162.002 53.6146 161.939 53.5894 161.927 53.5516L159.849 49.9244V54.1561C159.849 54.2317 159.786 54.2947 159.71 54.2947H159.534C159.458 54.2947 159.395 54.2317 159.395 54.1561V49.2191H159.408Z" fill="#3D3E46"/>
<path d="M62.7204 125.693C57.2167 125.693 51.7507 124.975 46.4862 123.564C41.1965 122.154 36.1083 120.038 31.3602 117.292C26.6247 114.547 22.2544 111.196 18.3753 107.317C14.4962 103.438 11.1461 99.068 8.40051 94.3325C5.65491 89.5844 3.53904 84.4962 2.12846 79.2066C0.717884 73.9421 0 68.4761 0 62.9723C0 57.4685 0.717884 52.0025 2.12846 46.738C3.53904 41.4484 5.65491 36.3602 8.40051 31.6121C11.1461 26.8766 14.4962 22.5063 18.3753 18.6272C22.2544 14.7481 26.6247 11.398 31.3602 8.6524C35.8816 6.03276 40.7305 3.99246 45.7431 2.58188C46.1461 2.46853 46.5743 2.70782 46.6877 3.11084L47.4056 5.78087C47.5063 6.18389 47.2796 6.58691 46.8766 6.70026C42.2041 8.02268 37.7078 9.91185 33.5013 12.3552C29.0932 14.9119 25.0126 18.0353 21.398 21.6499C17.7834 25.2645 14.66 29.3325 12.1033 33.7532C9.5466 38.1738 7.58187 42.9219 6.25945 47.8464C4.94962 52.7456 4.28212 57.8464 4.28212 62.9723C4.28212 68.0982 4.94962 73.199 6.25945 78.0982C7.58187 83.0227 9.5466 87.7708 12.1033 92.1914C14.66 96.5995 17.7834 100.68 21.398 104.295C25.0126 107.909 29.0806 111.033 33.5013 113.589C37.9219 116.146 42.67 118.111 47.5945 119.433C52.5063 120.743 57.5945 121.411 62.7204 121.411C67.8464 121.411 72.9471 120.743 77.8464 119.433C82.7708 118.111 87.5189 116.146 91.9396 113.589C96.3477 111.033 100.428 107.909 104.043 104.295C107.657 100.68 110.781 96.6121 113.338 92.1914C115.768 87.9849 117.67 83.4887 118.98 78.8161C119.093 78.4131 119.509 78.1864 119.899 78.2872L122.569 79.005C122.972 79.1184 123.212 79.534 123.098 79.9496C121.688 84.9748 119.647 89.8111 117.028 94.3325C114.282 99.068 110.932 103.438 107.053 107.317C103.174 111.196 98.8036 114.547 94.0681 117.292C89.3199 120.038 84.2318 122.154 78.9421 123.564C73.6902 124.975 68.2242 125.693 62.7204 125.693Z" fill="#A8A7AE"/>
<path d="M62.7204 119.635C57.7456 119.635 52.8085 118.992 48.0478 117.72C43.2745 116.448 38.665 114.534 34.3828 112.053C30.1007 109.572 26.1587 106.549 22.6574 103.035C19.3325 99.7102 16.4357 95.9948 14.0428 91.9772C13.8287 91.612 13.942 91.146 14.3073 90.9319L16.7002 89.5465C17.0529 89.345 17.5189 89.4583 17.733 89.811C19.9496 93.5263 22.6196 96.952 25.6927 100.012C28.9294 103.249 32.5818 106.058 36.5365 108.35C40.5037 110.642 44.7481 112.405 49.1687 113.589C53.5642 114.761 58.136 115.365 62.733 115.365C67.3299 115.365 71.8891 114.773 76.2972 113.589C80.7178 112.405 84.9622 110.642 88.9294 108.35C92.8841 106.058 96.5365 103.262 99.7733 100.012C103.01 96.7757 105.819 93.1233 108.111 89.1686C110.403 85.2014 112.166 80.9571 113.35 76.5364C114.458 72.3676 115.05 68.0603 115.113 63.7152C115.113 63.2996 115.453 62.9722 115.869 62.9722H118.64C119.068 62.9722 119.408 63.3248 119.395 63.7404C119.332 68.4508 118.69 73.1233 117.481 77.6321C116.209 82.4054 114.295 87.015 111.814 91.2971C109.332 95.5792 106.31 99.5213 102.796 103.023C99.2821 106.536 95.34 109.572 91.0579 112.053C86.7632 114.534 82.1662 116.448 77.3929 117.72C72.6322 118.992 67.6952 119.635 62.7204 119.635Z" fill="#A8A7AE"/>
<path d="M9.58441 62.9721H6.81362C6.38541 62.9721 6.04536 62.6195 6.05796 62.2039C6.12093 57.4935 6.76325 52.821 7.97231 48.3122C9.24436 43.5389 11.1587 38.9293 13.6398 34.6472C16.1209 30.3651 19.1436 26.423 22.6575 22.9218C26.1587 19.4205 30.1134 16.3852 34.3829 13.9041C38.6776 11.423 43.2746 9.50866 48.0479 8.23662C52.5567 7.02756 57.2293 6.38524 61.9396 6.32227C62.3678 6.32227 62.7078 6.64972 62.7078 7.07793V9.84871C62.7078 10.2643 62.3804 10.6044 61.9648 10.6044C57.6197 10.6674 53.3124 11.2593 49.1436 12.3676C44.723 13.5515 40.4786 15.3147 36.5114 17.6069C32.5567 19.8991 28.9043 22.6951 25.6675 25.9444C22.4308 29.1812 19.6222 32.8336 17.33 36.7883C15.0378 40.7555 13.2746 44.9998 12.0907 49.4205C10.9824 53.5893 10.3905 57.8966 10.3275 62.2417C10.3401 62.6447 10 62.9721 9.58441 62.9721Z" fill="#A8A7AE"/>
<path d="M62.7204 113.577C58.2745 113.577 53.8665 112.997 49.6221 111.864C45.3526 110.718 41.2468 109.017 37.4181 106.801C33.602 104.584 30.0755 101.876 26.9395 98.7529C23.8161 95.6295 21.1083 92.103 18.8917 88.2743C16.675 84.4456 14.9748 80.3398 13.8287 76.0703C12.6952 71.8134 12.1158 67.4179 12.1158 62.9721C12.1158 58.5262 12.6952 54.1182 13.8287 49.8738C14.8992 45.8562 16.4735 41.9771 18.5138 38.3373C18.7153 37.9721 19.1939 37.8335 19.5592 38.0476L21.9521 39.433C22.3048 39.6345 22.4307 40.1005 22.2292 40.4532C20.3778 43.7781 18.942 47.3171 17.9597 50.9821C16.9143 54.8738 16.398 58.904 16.398 62.9721C16.398 67.0401 16.9269 71.0703 17.9597 74.962C19.005 78.8663 20.5667 82.6194 22.5944 86.1333C24.6221 89.6345 27.1032 92.8587 29.9622 95.7302C32.8337 98.6018 36.0579 101.07 39.5592 103.098C43.0604 105.126 46.8262 106.687 50.7304 107.733C54.6221 108.778 58.6524 109.294 62.7204 109.294C66.7884 109.294 70.8186 108.766 74.7103 107.733C78.6146 106.687 82.3677 105.126 85.8816 103.098C89.1687 101.196 92.2166 98.8915 94.9496 96.2466C95.2519 95.9569 95.7178 95.9695 96.0075 96.2592L97.9597 98.2113C98.2619 98.5136 98.2493 98.9922 97.9471 99.2945C94.9622 102.191 91.6247 104.723 88.0226 106.801C84.1939 109.017 80.0881 110.718 75.8186 111.864C71.5743 112.997 67.1662 113.577 62.7204 113.577Z" fill="#A8A7AE"/>
<path d="M62.7205 107.519C58.8162 107.519 54.9371 107.015 51.1839 106.008C47.4308 105 43.8162 103.501 40.4408 101.549C37.0781 99.5972 33.9799 97.2168 31.2217 94.4586C28.4635 91.7004 26.0832 88.6022 24.1436 85.2395C22.1915 81.8642 20.6927 78.2496 19.6852 74.4964C18.6902 70.7559 18.1738 66.8768 18.1738 62.9599C18.1738 59.0556 18.6776 55.1765 19.6852 51.4234C20.6927 47.6702 22.1915 44.0556 24.1436 40.6803C25.9572 37.5443 28.1612 34.6224 30.6801 32.0153C30.9698 31.7131 31.461 31.7005 31.7633 32.0027L33.7154 33.9549C34.0051 34.2445 34.0177 34.7231 33.728 35.0128C31.461 37.368 29.4837 39.9876 27.8464 42.8214C26.0832 45.8692 24.723 49.1312 23.8162 52.5317C22.9093 55.9196 22.4559 59.4209 22.4559 62.9599C22.4559 66.4989 22.9093 70.0002 23.8162 73.3881C24.723 76.776 26.0832 80.0506 27.8464 83.0984C29.6096 86.1337 31.7633 88.9423 34.257 91.436C36.7507 93.9297 39.5592 96.0833 42.5945 97.8465C45.6424 99.6098 48.9043 100.97 52.3048 101.877C55.6928 102.784 59.194 103.237 62.7331 103.237C66.2721 103.237 69.7734 102.784 73.1613 101.877C76.5492 100.97 79.8238 99.6098 82.8716 97.8465C85.9069 96.0833 88.7155 93.9297 91.2092 91.436C93.5265 89.1186 95.5542 86.5367 97.2419 83.7408C97.456 83.3881 97.9094 83.2748 98.2621 83.4763L100.655 84.8617C101.02 85.0758 101.146 85.5418 100.919 85.907C99.0429 89.0178 96.8011 91.8894 94.2318 94.4586C91.4736 97.2168 88.3754 99.5972 85.0127 101.537C81.6374 103.489 78.0227 104.988 74.2696 105.995C70.5038 107.015 66.6248 107.519 62.7205 107.519Z" fill="#A8A7AE"/>
<path d="M26.2721 72.7331C25.8564 72.8464 25.4408 72.5945 25.3401 72.1789C24.597 69.1814 24.2318 66.0832 24.2318 62.9724C24.2318 59.5971 24.6726 56.2469 25.529 53.0102C26.398 49.7608 27.6952 46.6374 29.3829 43.728C31.0705 40.8187 33.1234 38.1361 35.5038 35.7558C37.6952 33.5643 40.1511 31.6374 42.8086 30.0253C43.1738 29.8112 43.6398 29.9245 43.8539 30.2898L45.2393 32.6827C45.4408 33.0354 45.3275 33.4888 44.9748 33.7029C42.6322 35.126 40.466 36.8263 38.5265 38.7658C36.4106 40.8817 34.5844 43.2621 33.0857 45.8439C31.5869 48.4384 30.4408 51.2092 29.6726 54.0933C28.9043 56.9648 28.5139 59.9497 28.5139 62.9472C28.5139 65.7054 28.8413 68.4384 29.4836 71.0832C29.5844 71.4862 29.3451 71.8892 28.9421 71.99L26.2721 72.7331Z" fill="#A8A7AE"/>
<path d="M62.7204 101.461C59.3451 101.461 55.995 101.02 52.7582 100.164C49.7607 99.3576 46.864 98.1989 44.1436 96.7002C43.7658 96.4987 43.6398 96.0201 43.8539 95.6548L45.2393 93.2619C45.4408 92.9092 45.8942 92.7833 46.2595 92.9722C48.665 94.2946 51.2217 95.3274 53.8665 96.0327C56.738 96.8009 59.7229 97.1914 62.7204 97.1914C65.7305 97.1914 68.7028 96.8009 71.5743 96.0327C74.2191 95.3274 76.7758 94.2946 79.1813 92.9722C79.5466 92.7707 79.9874 92.8966 80.2015 93.2619L81.5869 95.6548C81.801 96.0201 81.6624 96.4987 81.2972 96.7002C78.5768 98.1989 75.6801 99.3702 72.6826 100.164C69.4458 101.02 66.0957 101.461 62.7204 101.461Z" fill="#A8A7AE"/>
</svg>
