<svg width="1400" height="313" viewBox="0 0 1400 313" fill="none" xmlns="http://www.w3.org/2000/svg">
<g clip-path="url(#clip0_297_48)">
<path d="M1031.6 292.88L1032.63 293.214C1033.28 296.275 1033.01 305.294 1032.99 308.859L959.793 308.868L958.822 307.883C958.166 303.368 958.556 297.617 958.713 292.96C983.008 293.06 1007.3 293.033 1031.6 292.88Z" fill="#FEFEFE"/>
<path d="M1142.26 253.338C1167.09 253.523 1191.9 253.502 1216.71 253.274L1216.74 269.207C1209.98 269.662 1198.98 269.278 1191.74 269.279L1142.3 269.331C1142.13 264.179 1142.26 258.529 1142.26 253.338Z" fill="#FEFEFE"/>
<path d="M1142.34 292.788C1154.37 293.39 1169.12 292.971 1181.31 293.039C1191.54 293.097 1206.69 293.461 1216.62 292.628L1216.74 308.893L1142.31 308.872C1142.14 303.428 1142.24 298.223 1142.34 292.788Z" fill="#FEFEFE"/>
<path d="M719.94 0H740.893C747.564 1.33896 753.266 1.89478 759.979 3.67726C783.419 9.89606 801.35 21.9328 817.147 40.0464C825.289 -4.43232 855.955 4.55188 891.372 3.73084L891.44 200.785C891.44 235.845 892.281 274.524 891.365 309.332C867.836 309.472 841.292 309.933 817.94 309.301C817.646 296.964 817.558 284.622 817.667 272.281C799.483 293.007 778.326 306.406 751.064 311.356C748.125 311.89 744.14 312.28 741.412 313H719.318C716.646 312.251 705.147 310.665 701.196 309.883C683.544 306.435 666.735 299.564 651.721 289.658C579.564 241.722 566.041 131.698 612.663 61.8746C631.228 33.9146 659.406 13.7334 691.858 5.15468C702.536 2.33665 709.789 2.02094 719.94 0ZM746.648 253.36C828.229 240.437 840.314 117.472 780.008 72.7165C767.423 63.3762 747.011 56.9791 731.268 59.6677C627.42 74.3505 640.492 262.534 746.648 253.36Z" fill="#FEFEFE"/>
<path d="M404.808 0H427.545C436.435 1.84814 443.623 2.19852 452.96 4.60985C483.509 12.4288 509.961 31.5259 526.992 58.0575C548.802 91.357 558.235 141.321 552.333 180.34C483.173 180.522 411.468 181.273 342.462 180.366C348.366 204.979 359.212 228.023 381.139 241.967C422.23 268.097 468.591 248.579 493.523 211.159C503.967 217.782 514.772 225.394 525.037 232.398C530.857 236.367 540.059 242.25 545.309 246.421C525.507 277.839 491.588 300.524 455.498 308.968C447.342 310.877 439.701 311.459 431.64 313H407.631C403.505 311.896 393.956 310.835 388.827 309.797C369.254 305.968 350.634 298.295 334.046 287.225C261.733 239.09 246.297 134.529 293.577 63.9677C313.032 34.9168 342.461 13.9999 376.298 5.17271C387.418 2.25922 394.373 2.05342 404.808 0ZM342.458 131.968L417.334 132.057L482.454 132.051C481.159 121.128 479.82 112.966 476.002 102.488C465.818 74.5412 439.252 55.5413 408.946 59.6874C369.958 64.981 350.381 95.9099 342.458 131.968Z" fill="#FEFEFE"/>
<path d="M1110.25 0H1129.71C1136.29 1.37309 1141.45 2.02699 1148.03 3.9668C1169.04 10.0843 1187.15 23.5462 1199.06 41.8982C1202.09 46.528 1204.26 50.6324 1206.57 55.6239C1223.16 28.0061 1242.72 12.2544 1274.51 3.64234C1279.98 2.1604 1289.81 1.15147 1293.76 0H1313.05C1320.19 1.43496 1326.94 2.40006 1333.97 4.54216C1368.75 15.1318 1393.29 47.1759 1398.31 82.6375C1398.83 86.3039 1399.35 90.0203 1400 93.6793V192.135C1377.29 193.042 1350.19 192.07 1326.84 192.356C1326.02 176.399 1325.98 155.189 1326.64 138.589C1328 103.878 1321.23 61.0537 1277.65 59.3443C1246.19 58.1102 1225.16 85.0171 1219.51 113.931C1215.83 132.731 1216.63 150.668 1216.64 170.087L1216.71 230.646C1192.89 230.25 1166.07 230.186 1142.31 230.72C1141.39 199.078 1142.73 165.358 1142.24 133.374C1142.87 113.909 1140.84 86.1782 1124.85 72.1964C1088.57 40.4638 1042.7 70.5214 1036 113.284C1031.86 139.703 1032.94 157.695 1032.94 182.269L1032.97 269.259L958.809 269.242C958.084 256.562 958.494 241.387 958.494 228.455L958.481 158.699C958.474 108.492 957.36 53.5222 958.713 3.6492C989.864 5.09175 1029.65 -4.23233 1033.03 40.6836C1047.64 20.2875 1072.01 6.89905 1096.42 2.3471C1101.04 1.48663 1105.63 0.918142 1110.25 0Z" fill="#FEFEFE"/>
<path d="M34.3079 220.641C65.9442 241.523 99.9899 259.793 139.985 252.893C149.207 251.16 158.5 246.256 163.779 238.375C167.349 233.044 169.248 223.48 167.753 217.256C163.097 199.251 135.903 191.533 120.6 186.163C78.843 171.512 29.3767 160.096 18.8941 109.822C8.5789 60.351 41.0851 13.0784 89.978 2.8443C100.657 0.609028 111.553 0.749378 122.394 0.63133C167.635 0.180527 193.957 11.2162 232.974 31.3141C224.576 49.16 212.81 67.6583 203.989 85.4976C177.045 68.2357 142.745 54.4939 110.227 59.2012C93.8164 61.5768 85.5641 77.6227 89.1099 92.9323C93.3379 111.191 122.372 117.329 138.124 123.012C179.23 137.84 227.006 151.667 238.224 200.099C243.334 222.042 239.492 245.117 227.548 264.222C212.322 288.471 187.225 302.234 159.957 308.878C151.789 310.868 140.94 311.026 133.752 313H112.47C104.326 310.951 91.6774 310.196 81.4092 307.623C50.0797 299.771 27.0973 286.962 0 270.57V269.812C11.5524 253.907 23.0511 236.836 34.3079 220.641Z" fill="#FEFEFE"/>
<path d="M1326.79 292.822C1350.9 293.298 1375.83 292.963 1400 292.933V308.781L1326.83 308.878C1326.51 303.559 1326.68 298.155 1326.79 292.822Z" fill="#FEFEFE"/>
<path d="M1400 214.798V230.475C1378.19 231.382 1348.98 230.585 1326.81 230.663C1326.5 225.236 1326.67 220.168 1326.81 214.753C1350.62 215.272 1376.05 214.856 1400 214.798Z" fill="#FEFEFE"/>
<path d="M1326.78 253.437L1400 253.424V269.241L1326.85 269.264C1326.62 263.66 1326.62 259.047 1326.78 253.437Z" fill="#FEFEFE"/>
</g>
<defs>
<clipPath id="clip0_297_48">
<rect width="1400" height="313" fill="white"/>
</clipPath>
</defs>
</svg>
