<svg width="217" height="35" viewBox="0 0 217 35" fill="none" xmlns="http://www.w3.org/2000/svg">
<path d="M7.43639 5.48731L19.9835 8.46614L32.5201 5.50216L28.3564 12.5461L22.93 13.7995V21.5939L19.8918 26.7649L16.8819 21.6533V13.8226L11.5151 12.5406L7.43639 5.48824M0 0L9.12609 15.6892L13.1963 16.6688V22.6237L19.9362 34L26.6156 22.5625V16.6623L30.7643 15.7087L40 0.01206L19.9844 4.74423L0 0Z" fill="#1E212E"/>
<path d="M47.7969 13.072H53.7213V24.7227H56.635V13.072H62.5594V10.207H47.7969V13.072Z" fill="#1E212E"/>
<path d="M65.5703 24.7227H80.3329V21.8578H68.484V18.8973H78.876V16.0324H68.484V13.072H80.3329V10.207H65.5703V24.7227Z" fill="#1E212E"/>
<path d="M132.031 10.207H120.156V24.7227H132.031C133.682 24.7227 135.016 23.5204 135.016 21.9924V13.0156C135.016 11.4877 133.682 10.207 132.031 10.207ZM132.004 21.8578H123.166V18.8973H132.004V21.8578ZM132.004 16.0324H123.166V13.072H132.004V16.0324Z" fill="#1E212E"/>
<path d="M191.274 10.207H179.398V24.7227H191.274C192.925 24.7227 194.161 23.5204 194.161 21.8969V13.1484C194.161 11.5411 192.925 10.207 191.274 10.207ZM191.246 21.8578H182.311V13.072H191.246V21.8578Z" fill="#1E212E"/>
<path d="M149.771 21.8578H140.836V10.207H137.922V21.8826C137.922 23.4898 139.276 24.7227 140.91 24.7227H149.792C151.427 24.7227 152.684 23.4908 152.684 21.8826V10.207H149.771V21.8578Z" fill="#1E212E"/>
<path d="M114.283 10.2031L114.28 10.2069H114.229V10.249L109.164 16.0428L104.054 10.2346L104.031 10.2461V10.2069H101.117V24.7226H104.031V14.6762L109.076 20.4233L114.229 14.6591V24.7226H117.239V10.2069H114.287L114.283 10.2031Z" fill="#1E212E"/>
<path d="M158.617 10.207H155.703V24.7227H158.617V10.207Z" fill="#1E212E"/>
<path d="M164.539 10.207H161.625V21.8826C161.625 23.4898 162.964 24.7227 164.6 24.7227H176.388V21.8578H164.539V10.207Z" fill="#1E212E"/>
<path d="M95.1917 10.207H86.3099C84.6753 10.207 83.3438 11.5421 83.3438 13.1503V24.7227H86.2574V13.072H95.1926V17.4649H86.2836L89.1973 20.3298H95.1926V24.7227H98.1063V13.1503C98.1063 11.543 96.8263 10.207 95.1917 10.207Z" fill="#1E212E"/>
<path d="M210.723 19.8533C211.478 19.3261 211.934 18.4953 211.934 17.5164V13.1484C211.934 11.5411 210.698 10.207 209.047 10.207H197.172V24.7227H200.086V13.072H209.021V17.4649H200.112L203.025 20.3298H207.843L208.952 24.7227H212.004L210.722 19.8542L210.723 19.8533Z" fill="#FF4500"/>
</svg>
