<svg width="320" height="313" viewBox="0 0 320 313" fill="none" xmlns="http://www.w3.org/2000/svg">
<g clip-path="url(#clip0_264_82)">
<path d="M157.952 5.20801C75.0461 5.20801 7.83984 72.4143 7.83984 155.32C7.83984 238.226 75.0461 305.432 157.952 305.432C240.858 305.432 308.064 238.226 308.064 155.32C308.064 72.4143 240.858 5.20801 157.952 5.20801ZM157.952 299.787C78.173 299.787 13.4856 235.099 13.4856 155.32C13.4856 75.5412 78.173 10.8538 157.952 10.8538C237.731 10.8538 302.397 75.5195 302.397 155.298C302.397 235.099 237.731 299.787 157.952 299.787Z" fill="white"/>
<path d="M112.351 56.433C113.524 55.9335 116.477 54.6741 116.477 54.6741C117.433 54.2615 118.041 53.7621 118.28 53.1541L118.106 51.1998L116.781 49.7666C116.152 49.5278 115.392 49.5712 114.545 49.9403C114.545 49.9403 111.201 51.3735 110.332 51.7426C110.701 52.5461 112.004 55.6295 112.351 56.433Z" fill="white"/>
<path d="M48.0334 109.916C46.5568 109.373 45.3842 109.959 44.7762 111.523C44.7762 111.523 43.3648 115.279 43.0391 116.169C43.8642 116.473 46.8391 117.603 47.6642 117.907C47.99 117.016 49.4014 113.26 49.4014 113.26C49.5534 112.869 49.662 112.435 49.662 112C49.662 111.175 49.2711 110.372 48.0334 109.916Z" fill="white"/>
<path d="M257.533 110.024C257.533 110.589 257.663 111.175 257.924 111.761C259.097 114.432 261.898 115.018 265.611 113.39C267.761 112.456 269.194 111.197 269.758 109.785C270.149 108.808 270.106 107.744 269.628 106.658C268.477 104.009 265.676 103.423 261.963 105.051C259.053 106.311 257.533 108.07 257.533 110.024Z" fill="white"/>
<path d="M186.506 48.4852C187.744 47.7252 188.634 46.292 189.112 44.2726C189.307 43.4691 189.394 42.7308 189.394 42.0577C189.394 40.9937 189.155 40.0817 188.699 39.3217C187.983 38.1708 186.723 37.3674 184.943 36.9331C184.943 36.9331 183.901 36.6725 183.249 36.5205C183.01 37.5411 180.622 47.4863 180.383 48.5069C181.034 48.6589 182.077 48.9195 182.077 48.9195C183.857 49.332 185.334 49.18 186.506 48.4852Z" fill="white"/>
<path d="M114.371 44.7933C114.371 44.4676 114.284 44.1853 114.197 43.9899C113.698 42.8173 112.829 42.4916 111.57 43.0344C111.57 43.0344 108.269 44.4459 107.4 44.815C107.704 45.5533 108.551 47.5076 108.855 48.2459C110.028 47.7465 113.024 46.487 113.024 46.487C114.088 46.0093 114.371 45.3579 114.371 44.7933Z" fill="white"/>
<path d="M157.951 16.1738C81.1035 16.1738 18.8047 78.4727 18.8047 155.32C18.8047 232.168 81.1035 294.467 157.951 294.467C234.799 294.467 297.097 232.168 297.097 155.32C297.097 78.4727 234.799 16.1738 157.951 16.1738ZM283.309 144.919L283.396 148.762L271.626 156.428C271.626 156.428 271.17 156.71 270.866 156.905C271.344 156.884 273.125 156.84 273.125 156.84L283.569 156.623L283.656 160.597L263.397 161.009L263.31 157.361L275.383 149.327C275.383 149.327 275.665 149.132 275.861 149.023C275.383 149.045 273.624 149.088 273.624 149.088L263.136 149.305L263.049 145.332L282.722 144.919H283.309ZM278.922 120.751L279.791 124.724L268.478 127.2C266.654 127.591 265.438 128.286 264.808 129.263C264.352 129.979 264.243 130.891 264.461 131.934C264.721 133.085 265.177 133.866 265.915 134.344C266.827 134.93 268.174 135.017 269.889 134.648L281.398 132.129L282.266 136.103L270.823 138.622C265.242 139.838 261.572 137.775 260.465 132.781C259.401 127.96 261.963 124.507 267.501 123.291L278.314 120.924L278.922 120.751ZM273.32 105.029C274.232 107.114 274.297 109.264 273.515 111.262C272.538 113.737 270.323 115.843 267.24 117.19C264.178 118.536 261.116 118.753 258.641 117.776C256.643 116.994 255.102 115.474 254.19 113.411C253.278 111.348 253.212 109.199 253.994 107.223C254.971 104.747 257.186 102.641 260.27 101.295C266.002 98.7757 271.235 100.274 273.32 105.029ZM244.049 91.1973C244.548 88.5916 246.351 86.1161 249.13 84.227C254.298 80.731 259.727 81.2521 262.636 85.5516C264.461 88.2442 264.699 90.8499 263.353 93.5208L263.093 94.0419L259.292 92.3482L259.531 91.8053C260.248 90.1768 260.161 89.1779 259.249 87.8316C258.598 86.8544 257.729 86.2682 256.708 86.0727C255.21 85.7904 253.386 86.3333 251.432 87.6579C248.088 89.9379 247.089 92.6088 248.674 94.9757C249.63 96.3654 250.715 96.9082 252.474 96.8648L253.082 96.8431L253.126 100.86L252.561 100.904C249.63 101.099 247.046 99.818 245.33 97.2557C244.092 95.3665 243.636 93.2819 244.049 91.1973ZM240.271 60.2325C242.703 62.3171 243.636 64.836 243.072 67.724L242.963 68.2886L238.881 67.6588L238.968 67.0726C239.228 65.3354 238.881 64.4017 237.621 63.3159C236.731 62.5559 235.754 62.1868 234.69 62.2737C233.17 62.3822 231.541 63.4028 230.021 65.1834C228.48 66.9857 227.741 68.7229 227.85 70.2429C227.937 71.2852 228.414 72.2189 229.326 72.9789C230.239 73.7606 231.151 74.108 232.041 74.0429C232.975 73.9778 233.626 73.4783 234.147 72.9572C233.517 72.4143 231.845 70.9812 231.845 70.9812L234.429 67.9846L239.901 72.6966L238.077 74.8246C236.405 76.7789 234.386 77.9081 232.28 78.0601C230.304 78.2121 228.371 77.5172 226.677 76.0623C224.962 74.5858 223.985 72.6966 223.811 70.5686C223.616 67.9194 224.701 65.0531 226.894 62.5125C229.088 59.9719 231.759 58.4519 234.408 58.2348C236.536 58.0828 238.555 58.7776 240.271 60.2325ZM213.323 42.4918L216.667 44.4026L217.21 58.4302C217.21 58.4302 217.21 58.9731 217.232 59.3205C217.666 58.5388 218.339 57.3445 218.339 57.3445L223.507 48.2678L226.96 50.2438L216.928 67.8543L213.757 66.052L213.062 51.5684C213.062 51.5684 213.062 51.221 213.041 51.0038C212.628 51.7421 211.955 52.9581 211.955 52.9581L206.765 62.0782L203.313 60.1022L213.062 43.0129L213.323 42.4918ZM201.814 38.4312L202.031 37.8666L205.81 39.3432L198.405 58.213L194.627 56.7365L201.814 38.4312ZM180.056 32.286L180.187 31.6997L185.832 33.046C191.869 34.4791 194.583 39.0392 193.107 45.2061C191.37 52.4804 185.767 53.8702 181.12 52.7627L175.475 51.4164L180.056 32.286ZM159.102 30.4402L159.145 29.8322L163.206 30.0711C163.206 30.0711 162.337 45.2061 162.272 46.3135C163.336 46.3787 171.761 46.8564 171.761 46.8564L171.544 50.8518L157.994 50.0701L159.102 30.4402ZM150.916 30.1797L151.524 30.1362L152.892 50.3524L148.853 50.6347L147.485 30.4185L150.916 30.1797ZM128.137 33.5454L130.547 44.8586C131.221 48.0507 132.806 49.4187 135.259 48.8975C136.866 48.5501 138.886 47.5947 137.995 43.4689L135.542 31.9602L138.929 31.2437L139.515 31.1134L141.969 42.5786C142.599 45.5101 142.317 47.8987 141.144 49.7227C140.102 51.3296 138.386 52.3936 136.063 52.893C133.826 53.3707 131.894 53.0884 130.309 52.0679C128.484 50.8736 127.225 48.7673 126.595 45.7924L124.163 34.3923L128.137 33.5454ZM110.092 39.5169C111.873 38.7569 113.567 38.6483 114.978 39.2129C116.238 39.7123 117.236 40.7763 117.866 42.2529C118.148 42.9043 118.279 43.5775 118.279 44.2072C118.279 44.9889 117.801 45.6838 117.41 46.3787C119.017 46.4655 120.863 47.2472 121.818 49.5273C122.252 50.5478 122.47 51.5033 122.47 52.4153C122.47 53.1101 122.339 53.7833 122.1 54.413C121.449 56.0199 119.994 57.3228 117.801 58.2565L110.288 61.4702L102.34 42.8175L110.092 39.5169ZM76.5652 60.0588L89.811 64.7057C89.811 64.7057 90.3104 64.9011 90.6579 65.0314C90.267 64.532 89.2247 63.2725 89.2247 63.2725L82.6887 55.1296L85.3161 53.0016L85.7938 52.6324L98.4968 68.4406L95.6522 70.7206L81.9287 66.052C81.9287 66.052 81.6029 65.9434 81.3858 65.8565C81.6681 66.204 82.7972 67.5937 82.7972 67.5937L89.355 75.7801L86.2498 78.2772L73.5469 62.4691L76.5652 60.0588ZM67.2497 68.7663L67.6405 68.3103L70.6589 70.916C70.6589 70.916 65.1868 77.2566 64.5137 78.0601C65.0999 78.5595 66.5765 79.8407 67.1845 80.3618C67.8143 79.6452 70.7674 76.2143 70.7674 76.2143L73.7857 78.8201C73.7857 78.8201 70.8326 82.251 70.2028 82.9675C70.8543 83.5321 73.1994 85.5516 73.8509 86.1161C74.5457 85.3127 80.2784 78.6681 80.2784 78.6681L83.2967 81.2738L74.22 91.8053L58.8462 78.5812L67.2497 68.7663ZM34.2654 133.91C34.8083 130.761 36.4803 128.655 39.2597 127.656L39.8026 127.461L41.366 131.282L40.8232 131.521C39.2163 132.194 38.5649 132.976 38.2826 134.605C38.0871 135.777 38.3043 136.798 38.9123 137.645C39.8026 138.882 41.4963 139.751 43.8198 140.142C47.8152 140.815 50.3775 139.577 50.8552 136.711C50.8987 136.385 50.9421 136.081 50.9421 135.799C50.9421 135.017 50.7467 134.366 50.3775 133.845C49.8347 133.085 49.0747 132.781 48.3581 132.585C48.2278 133.41 47.8587 135.582 47.8587 135.582L43.95 134.93L45.1443 127.808L47.9238 128.286C50.4644 128.72 52.4621 129.849 53.6781 131.586C54.829 133.193 55.2416 135.213 54.8507 137.427C54.4816 139.642 53.3524 141.466 51.6153 142.704C49.4438 144.246 46.4255 144.789 43.1249 144.224C39.8026 143.66 37.1317 142.161 35.59 139.99C34.6345 138.643 34.1351 137.08 34.1351 135.43C34.1351 134.909 34.1785 134.431 34.2654 133.91ZM56.4793 181.095C56.8484 182.528 55.9364 184.07 54.4816 184.439C53.0267 184.808 51.485 183.896 51.1158 182.442C50.7467 180.987 51.6804 179.467 53.1353 179.098C54.5901 178.75 56.1102 179.662 56.4793 181.095ZM53.309 156.297C53.3307 157.796 52.093 159.077 50.5947 159.098C49.0964 159.12 47.7935 157.882 47.7718 156.384C47.7501 154.886 49.0095 153.605 50.5078 153.583C52.0061 153.583 53.2873 154.821 53.309 156.297ZM33.3751 170.803C33.0711 168.262 33.7008 165.982 35.3077 163.854L35.6768 163.376L38.9123 165.873L38.5214 166.351C37.5226 167.589 37.1751 168.892 37.3706 170.542C37.4791 171.497 37.8048 172.214 38.2826 172.605L39.4334 172.909C40.2152 172.822 40.758 172.496 41.366 168.892C41.9957 165.352 42.886 162.139 46.8598 161.661C48.6621 161.444 50.2038 161.813 51.4198 162.768C52.8964 163.919 53.8084 165.852 54.1124 168.501C54.4599 171.28 53.5913 174.06 51.7238 176.079L51.3547 176.492L48.2061 173.973L48.5969 173.495C49.7261 172.171 50.2907 170.368 50.0952 168.761C49.7478 165.808 48.5318 165.569 47.5329 165.7C46.5775 165.808 46.0129 166.481 45.4266 169.869C44.7535 173.843 44.0152 176.492 40.0632 176.97C38.5431 177.165 37.11 176.774 35.9591 175.862C34.5477 174.733 33.6357 172.952 33.3751 170.803ZM54.3513 202.636L43.4289 206.74L41.9957 202.94L52.8313 198.879C54.5684 198.228 55.6759 197.381 56.1536 196.339C56.501 195.557 56.501 194.645 56.1319 193.646C55.5456 192.104 54.3296 190.259 50.3558 191.735L39.3249 195.861L37.8917 192.061L48.8575 187.935C54.1993 185.938 58.1296 187.458 59.9319 192.256C61.7125 196.86 59.6496 200.66 54.3513 202.636ZM60.8873 115.235C60.8873 115.235 53.157 116.06 52.4838 116.147C52.3101 116.647 51.5935 118.514 51.3113 119.274C52.2667 119.622 58.3902 121.923 58.3902 121.923L56.9787 125.68L37.9786 118.579L41.1272 110.176C42.582 106.289 45.7523 104.725 49.3787 106.072C52.1147 107.092 53.5696 109.09 53.5696 111.739V111.848C54.7639 111.718 62.4942 110.892 62.4942 110.892L60.8873 115.235ZM47.1638 96.5608L53.7867 85.5081L54.0907 84.987L57.4999 87.0281C57.4999 87.0281 53.2004 94.2156 52.6576 95.1059C53.3307 95.4968 55.0027 96.5174 55.6759 96.9082C56.1753 96.0831 58.4987 92.2179 58.4987 92.2179L61.9079 94.2591C61.9079 94.2591 59.5845 98.146 59.085 98.9494C59.8233 99.3837 62.4725 100.991 63.2108 101.425C63.7536 100.513 68.2703 92.9779 68.2703 92.9779L71.6794 95.0191L64.5354 106.94L47.1638 96.5608ZM107.487 261.634C105.554 264.913 103.057 267.041 100.299 267.758C97.8671 268.387 95.2179 267.91 92.6556 266.39C90.1367 264.891 88.4647 262.807 87.835 260.353C87.6396 259.615 87.5527 258.833 87.5527 258.03C87.5527 255.858 88.2693 253.535 89.659 251.168C89.659 251.168 96.7379 239.181 97.1505 239.073C97.1505 239.073 101.428 241.592 101.537 242.004L94.4796 253.926C92.547 257.204 92.8945 260.179 95.4351 261.678C97.9757 263.176 100.755 262.112 102.688 258.855C102.688 258.855 109.767 246.868 110.179 246.76C110.179 246.76 114.457 249.279 114.544 249.691L107.487 261.634ZM129.809 264.544C132.697 266.107 137.496 268.713 135.933 274.446C135.325 276.704 134.13 278.354 132.437 279.332C130.33 280.526 127.507 280.656 124.076 279.722C119.994 278.615 116.889 275.966 115.912 272.274C115.912 272.274 120.211 270.146 120.602 270.277C121.623 272.426 123.36 273.859 125.792 274.533C127.464 274.989 128.875 275.01 129.375 274.598C129.874 274.185 130.178 273.838 130.287 273.295C130.417 272.73 130.395 272.861 130.395 272.643C130.395 271.71 129.548 270.819 126.009 268.93C122.926 267.258 119.994 265.326 119.994 261.656C119.994 260.961 120.103 260.223 120.32 259.398C120.819 257.552 121.948 256.097 123.555 255.163C125.596 253.991 128.376 253.752 131.155 254.512C134.673 255.489 137.257 257.53 138.907 261.2C138.907 261.2 134.543 263.61 134.13 263.48C132.979 261.417 131.525 260.223 129.548 259.68C127.594 259.137 126.226 259.506 125.9 260.679C125.575 261.96 126.226 262.611 129.809 264.544ZM167.744 274.207C167.636 280.461 163.553 284.434 157.321 284.326C150.546 284.217 146.269 279.006 146.377 271.058C146.508 263.35 151.241 258.051 157.908 258.138C162.641 258.225 165.681 260.31 167.31 265.087C167.31 265.087 162.576 266.954 162.185 266.802C161.273 264.891 160.209 263.719 157.756 263.675C154.325 263.632 152.175 266.477 152.088 271.145C152.045 273.816 152.74 276.031 154.086 277.399C154.998 278.354 156.17 278.854 157.56 278.854C160.405 278.897 161.816 277.855 162.468 275.77C162.468 275.77 158.537 275.705 158.233 275.401C158.233 275.401 158.298 270.754 158.602 270.45C158.602 270.45 167.505 270.602 167.788 270.906L167.744 274.207ZM198.926 275.227C197.775 277.182 195.669 278.593 192.824 279.332C192.824 279.332 181.924 282.176 181.555 281.959C181.555 281.959 175.323 257.943 175.518 257.574L186.527 254.707C191.478 253.426 195.083 255.142 196.147 259.289C196.299 259.832 196.364 260.375 196.364 260.896C196.364 262.264 195.778 263.48 194.887 264.544C197.211 265.065 198.926 266.607 199.534 268.995C199.751 269.886 199.882 270.711 199.882 271.514C199.903 272.882 199.578 274.12 198.926 275.227ZM222.964 267.15C220.358 268.626 217.601 269.017 214.93 268.279C211.716 267.389 208.915 264.957 206.809 261.265C204.789 257.726 204.181 253.991 205.093 250.734C205.853 247.976 207.612 245.761 210.218 244.284C213.974 242.156 217.753 242.265 221.205 245.023C221.205 245.023 218.252 249.148 217.84 249.235C216.233 248.193 214.604 248.15 212.867 249.148C211.651 249.822 210.869 250.82 210.522 252.08C210.022 253.882 210.478 256.14 211.781 258.464C213.062 260.744 214.8 262.264 216.624 262.785C217.905 263.154 219.164 262.981 220.358 262.307C222.139 261.309 222.812 259.984 223.181 257.139C223.181 257.139 228.045 257.226 228.349 257.508C228.61 261.721 226.808 264.978 222.964 267.15ZM157.951 245.956C107.877 245.956 67.3148 205.372 67.3148 155.32C67.3148 105.268 107.899 64.684 157.951 64.684C208.003 64.684 248.587 105.268 248.587 155.32C248.587 205.372 208.003 245.956 157.951 245.956ZM272.929 205.893C272.929 205.893 259.184 199.531 258.163 199.075C257.729 200.03 254.19 207.717 254.19 207.717L250.542 206.045L255.97 194.276L256.231 193.733L274.645 202.223L272.929 205.893ZM277.207 194.775L257.859 188.717L258.88 185.416L259.054 184.852L278.401 190.91L277.207 194.775ZM281.941 177.143C281.398 180.335 279.769 182.398 276.946 183.397L276.403 183.592L274.818 179.749L275.361 179.51C276.99 178.837 277.641 178.055 277.923 176.448C278.119 175.297 277.902 174.277 277.315 173.43C276.425 172.192 274.731 171.324 272.386 170.933C268.391 170.26 265.829 171.497 265.351 174.342C265.069 175.992 265.481 177.143 266.806 178.316L267.262 178.728L264.504 181.66L264.07 181.291C261.811 179.402 260.834 176.687 261.355 173.647C262.224 168.544 266.936 165.808 273.081 166.851C276.382 167.415 279.074 168.913 280.594 171.085C281.854 172.822 282.31 174.928 281.941 177.143Z" fill="white"/>
<path d="M190.197 268.518C190.197 268.518 184.617 269.973 184.096 270.103C184.291 270.863 185.312 274.902 185.312 275.684C185.312 275.749 185.29 275.793 185.268 275.793C185.312 275.793 191.631 274.142 191.631 274.142C193.303 273.708 194.171 272.774 194.171 271.45C194.171 271.146 194.128 270.82 194.041 270.494C193.542 268.583 192.325 267.975 190.197 268.518Z" fill="white"/>
<path d="M188.894 263.698C188.894 263.698 190.37 263.22 190.674 262.612C190.978 261.982 190.783 261.114 190.783 261.114C190.522 260.115 189.936 259.203 187.612 259.789C187.612 259.789 182.314 261.157 181.793 261.309C181.967 262.004 182.618 264.544 182.618 265.218C182.618 265.304 182.596 265.348 182.575 265.348C182.64 265.326 188.894 263.698 188.894 263.698Z" fill="white"/>
<path d="M223.615 175.862C225.027 175.189 242.203 169.912 238.251 159.663C235.471 152.454 230.151 160.988 226.438 158.208C225.244 157.318 224.505 156.601 229.717 151.542C234.95 146.461 236.535 142.856 237.056 139.729C237.578 136.602 237.578 134.214 235.428 133.019C233.278 131.825 230.455 134.995 229.587 131.695C229.066 129.936 229.739 128.937 229.739 125.767C229.76 122.314 226.199 113.672 217.969 116.582C212.628 118.471 215.472 127.656 214.083 129.393C212.671 131.174 211.477 125.723 208.48 124.855C205.028 123.878 202.617 127.07 202.639 130.044C202.661 133.019 204.593 138.535 205.245 140.663C205.592 142.357 206.526 146.982 205.94 148.328C205.049 150.369 204.311 149.696 202.335 147.112C200.598 144.81 201.51 145.766 198.448 142.096C194.626 137.384 192.303 143.92 192.021 148.285C191.738 152.649 195.061 167.828 194.996 169.847C194.757 178.945 189.697 168.523 189.545 168.262C186.223 163.202 179.839 165.569 181.837 170.998C185.485 180.9 188.742 189.455 185.311 197.946C184.855 199.075 184.225 201.073 183.378 203.027C211.433 176.904 219.164 140.706 219.164 140.663C219.272 140.294 219.945 139.925 220.271 140.033C220.619 140.142 220.792 140.837 220.684 141.227C220.662 141.293 211.52 195.036 162.598 222.483C161.512 223.069 161.382 222.44 161.186 221.462C161.425 212.95 161.772 207.153 164.943 205.285C191.282 189.651 182.727 182.442 177.277 181.378C171.804 180.314 168.699 171.367 176.234 167.48C189.502 160.01 196.277 133.389 179.817 139.208C178.319 139.338 167.483 144.984 177.038 128.633C186.071 112.282 183.291 97.7334 173.911 104.074C171.457 105.724 164.487 113.107 165.876 102.445C168.374 86.2681 164.356 80.5138 159.623 79.4498C159.623 79.4498 159.123 79.3629 158.732 79.3195L158.298 79.3412V79.2978C158.016 79.2761 156.973 79.4498 156.973 79.4498C152.218 80.5138 148.223 86.2681 150.72 102.445C152.109 113.107 145.161 105.724 142.707 104.074C133.326 97.7334 130.547 112.282 139.58 128.633C149.135 144.962 138.299 139.338 136.779 139.208C120.298 133.389 127.094 160.032 140.362 167.48C147.897 171.367 144.77 180.292 139.32 181.378C133.848 182.442 125.292 189.629 151.632 205.285C154.802 207.174 155.193 212.994 155.41 221.528C155.193 222.483 155.041 223.048 153.977 222.483C104.989 195.079 95.8472 141.336 95.8255 141.271C95.7169 140.902 95.9775 140.185 96.325 140.077C96.6724 139.968 97.2152 140.576 97.3238 140.945C97.3455 140.989 105.076 176.926 133.131 203.07C132.284 201.094 131.654 199.118 131.198 197.989C127.746 189.499 131.025 180.943 134.673 171.041C136.67 165.613 130.286 163.246 126.964 168.305C126.79 168.544 121.731 178.989 121.514 169.891C121.449 167.871 124.771 152.693 124.489 148.328C124.206 143.963 121.883 137.449 118.083 142.139C115.021 145.831 115.933 144.875 114.196 147.155C112.22 149.761 111.482 150.413 110.591 148.372C110.005 147.025 110.939 142.4 111.286 140.706C111.916 138.578 113.849 133.041 113.892 130.088C113.914 127.113 111.503 123.921 108.051 124.898C105.054 125.767 103.86 131.217 102.448 129.436C101.08 127.699 103.903 118.514 98.5615 116.625C90.31 113.715 86.7706 122.358 86.7923 125.81C86.7923 128.98 87.4654 129.958 86.9443 131.738C86.0974 135.039 83.2528 131.847 81.1248 133.063C78.9751 134.257 78.9751 136.646 79.4962 139.773C80.0174 142.899 81.6025 146.504 86.8357 151.585C92.0689 156.645 91.3089 157.361 90.1146 158.252C86.4014 161.031 81.0597 152.497 78.3019 159.706C74.3499 169.956 91.526 175.232 92.9375 175.905C96.6072 177.664 98.6484 181.682 93.6106 180.509C91.5912 180.031 88.486 178.555 86.0757 181.269C79.6699 188.413 96.3467 200.834 107.421 203.135C118.495 205.437 128.397 209.65 132.588 211.561C136.714 213.428 154.324 225.501 155.54 230.409C155.844 231.842 156.604 232.906 158.298 232.906C159.992 232.906 160.73 231.972 161.034 230.496C162.163 225.697 179.839 213.428 183.965 211.561C188.134 209.65 198.057 205.437 209.132 203.135C220.206 200.834 236.883 188.413 230.499 181.269C228.067 178.576 224.983 180.053 222.964 180.509C217.904 181.638 219.924 177.621 223.615 175.862ZM159.253 226.761C159.253 226.761 159.145 227.76 158.363 227.716C157.581 227.694 157.625 226.761 157.625 226.761C157.625 226.761 157.06 192.343 157.06 168.761C157.06 145.179 157.625 119.513 157.625 119.513C157.625 119.513 157.842 118.536 158.493 118.536C159.145 118.536 159.253 119.513 159.253 119.513C159.253 119.513 159.818 145.201 159.818 168.761C159.818 192.322 159.253 226.761 159.253 226.761Z" fill="white"/>
<path d="M273.842 261.722C277.208 261.722 280.096 264.349 280.096 267.889C280.096 271.471 277.208 274.099 273.842 274.099C270.433 274.099 267.545 271.471 267.545 267.889C267.567 264.349 270.455 261.722 273.842 261.722ZM273.842 262.742C270.976 262.742 268.761 264.957 268.761 267.91C268.761 270.929 270.976 273.1 273.842 273.1C276.665 273.1 278.902 270.929 278.902 267.91C278.902 264.957 276.687 262.742 273.842 262.742ZM272.539 271.493H271.432V264.349H274.168C275.862 264.349 276.708 264.979 276.708 266.39C276.708 267.671 275.905 268.214 274.841 268.366L276.882 271.493H275.688L273.777 268.388H272.539V271.493ZM272.539 267.476H273.842C275.167 267.476 275.601 267.085 275.601 266.303C275.601 265.609 275.275 265.239 274.016 265.239H272.539V267.476Z" fill="white"/>
</g>
<defs>
<clipPath id="clip0_264_82">
<rect width="319.68" height="312.812" fill="white"/>
</clipPath>
</defs>
</svg>
